{
    "asset" : {
        "generator" : "Khronos glTF Blender I/O v1.7.33",
        "version" : "2.0"
    },
    "scene" : 0,
    "scenes" : [
        {
            "name" : "Scene",
            "nodes" : [
                0,
                2
            ]
        }
    ],
    "nodes" : [
        {
            "name" : "Empty",
            "translation" : [
                0,
                1.0012874603271484,
                0
            ]
        },
        {
            "mesh" : 0,
            "name" : "Plane.033",
            "rotation" : [
                0.7071068286895752,
                0,
                0,
                0.7071067094802856
            ],
            "scale" : [
                1.0005533695220947,
                1.0005533695220947,
                1.0005533695220947
            ],
            "translation" : [
                0,
                0,
                0.1411808580160141
            ]
        },
        {
            "children" : [
                1
            ],
            "mesh" : 1,
            "name" : "Plane.034",
            "scale" : [
                0.9994469285011292,
                0.9994469285011292,
                0.9994469285011292
            ],
            "translation" : [
                -0.0071239471435546875,
                0.9974079132080078,
                0.026581212878227234
            ]
        }
    ],
    "materials" : [
        {
            "doubleSided" : true,
            "name" : "PUTIH.021",
            "pbrMetallicRoughness" : {
                "baseColorFactor" : [
                    0.550000011920929,
                    0.550000011920929,
                    0.550000011920929,
                    1
                ],
                "metallicFactor" : 0,
                "roughnessFactor" : 0.5
            }
        },
        {
            "doubleSided" : true,
            "name" : "Material.076",
            "pbrMetallicRoughness" : {
                "baseColorFactor" : [
                    0.316890150308609,
                    0.18091031908988953,
                    0.5379646420478821,
                    1
                ],
                "metallicFactor" : 0,
                "roughnessFactor" : 0.5
            }
        },
        {
            "doubleSided" : true,
            "name" : "Material.075",
            "pbrMetallicRoughness" : {
                "baseColorFactor" : [
                    0.06748563051223755,
                    0.024443723261356354,
                    0.2865160405635834,
                    1
                ],
                "metallicFactor" : 0,
                "roughnessFactor" : 0.6000000238418579
            }
        }
    ],
    "meshes" : [
        {
            "name" : "Plane.079",
            "primitives" : [
                {
                    "attributes" : {
                        "POSITION" : 0,
                        "NORMAL" : 1,
                        "TEXCOORD_0" : 2
                    },
                    "indices" : 3,
                    "material" : 0
                },
                {
                    "attributes" : {
                        "POSITION" : 4,
                        "NORMAL" : 5,
                        "TEXCOORD_0" : 6
                    },
                    "indices" : 7,
                    "material" : 1
                }
            ]
        },
        {
            "name" : "Plane.078",
            "primitives" : [
                {
                    "attributes" : {
                        "POSITION" : 8,
                        "NORMAL" : 9,
                        "TEXCOORD_0" : 10
                    },
                    "indices" : 11,
                    "material" : 2
                }
            ]
        }
    ],
    "accessors" : [
        {
            "bufferView" : 0,
            "componentType" : 5126,
            "count" : 8113,
            "max" : [
                0.4781194031238556,
                0.07000001519918442,
                0.353152334690094
            ],
            "min" : [
                -0.4781194031238556,
                -8.13324962933848e-09,
                -0.621917188167572
            ],
            "type" : "VEC3"
        },
        {
            "bufferView" : 1,
            "componentType" : 5126,
            "count" : 8113,
            "type" : "VEC3"
        },
        {
            "bufferView" : 2,
            "componentType" : 5126,
            "count" : 8113,
            "type" : "VEC2"
        },
        {
            "bufferView" : 3,
            "componentType" : 5123,
            "count" : 44928,
            "type" : "SCALAR"
        },
        {
            "bufferView" : 4,
            "componentType" : 5126,
            "count" : 2818,
            "max" : [
                0.11841360479593277,
                0.0700000450015068,
                0.6681917309761047
            ],
            "min" : [
                -0.11841192841529846,
                2.5054031738136473e-08,
                0.4313661456108093
            ],
            "type" : "VEC3"
        },
        {
            "bufferView" : 5,
            "componentType" : 5126,
            "count" : 2818,
            "type" : "VEC3"
        },
        {
            "bufferView" : 6,
            "componentType" : 5126,
            "count" : 2818,
            "type" : "VEC2"
        },
        {
            "bufferView" : 7,
            "componentType" : 5123,
            "count" : 16896,
            "type" : "SCALAR"
        },
        {
            "bufferView" : 8,
            "componentType" : 5126,
            "count" : 10360,
            "max" : [
                0.9384196400642395,
                0.9364221096038818,
                0.14118097722530365
            ],
            "min" : [
                -0.9384196996688843,
                -0.9364219903945923,
                -0.1411808580160141
            ],
            "type" : "VEC3"
        },
        {
            "bufferView" : 9,
            "componentType" : 5126,
            "count" : 10360,
            "type" : "VEC3"
        },
        {
            "bufferView" : 10,
            "componentType" : 5126,
            "count" : 10360,
            "type" : "VEC2"
        },
        {
            "bufferView" : 11,
            "componentType" : 5123,
            "count" : 57600,
            "type" : "SCALAR"
        }
    ],
    "bufferViews" : [
        {
            "buffer" : 0,
            "byteLength" : 97356,
            "byteOffset" : 0
        },
        {
            "buffer" : 0,
            "byteLength" : 97356,
            "byteOffset" : 97356
        },
        {
            "buffer" : 0,
            "byteLength" : 64904,
            "byteOffset" : 194712
        },
        {
            "buffer" : 0,
            "byteLength" : 89856,
            "byteOffset" : 259616
        },
        {
            "buffer" : 0,
            "byteLength" : 33816,
            "byteOffset" : 349472
        },
        {
            "buffer" : 0,
            "byteLength" : 33816,
            "byteOffset" : 383288
        },
        {
            "buffer" : 0,
            "byteLength" : 22544,
            "byteOffset" : 417104
        },
        {
            "buffer" : 0,
            "byteLength" : 33792,
            "byteOffset" : 439648
        },
        {
            "buffer" : 0,
            "byteLength" : 124320,
            "byteOffset" : 473440
        },
        {
            "buffer" : 0,
            "byteLength" : 124320,
            "byteOffset" : 597760
        },
        {
            "buffer" : 0,
            "byteLength" : 82880,
            "byteOffset" : 722080
        },
        {
            "buffer" : 0,
            "byteLength" : 115200,
            "byteOffset" : 804960
        }
    ],
    "buffers" : [
        {
            "byteLength" : 920160,
            "uri" : "data:application/octet-stream;base64,"
        }
    ]
}
