<svg width="1261" height="508" viewBox="0 0 1261 508" fill="none" xmlns="http://www.w3.org/2000/svg">
<path d="M307.473 125.458C307.473 125.252 307.267 124.84 306.855 124.84C306.855 124.84 306.855 124.84 306.649 124.84C306.237 124.84 303.971 124.634 302.323 122.986C300.881 121.544 300.263 119.69 300.263 116.806C300.263 116.394 300.263 116.188 300.263 115.982C300.263 115.776 300.057 115.364 299.645 115.364C299.439 115.364 299.027 115.57 299.027 115.982C299.027 116.188 299.027 116.394 299.027 116.6C299.027 117.836 298.615 120.926 296.967 122.574C296.143 123.398 294.907 124.016 293.465 124.016C293.259 124.016 292.847 124.222 292.847 124.634C292.847 124.84 293.053 125.252 293.259 125.252C293.465 125.252 299.027 125.87 299.027 132.462C299.027 132.668 299.233 132.874 299.439 133.08C299.645 133.08 300.057 132.874 300.057 132.668C300.057 132.462 301.087 126.076 306.237 125.87H306.443C307.267 126.076 307.473 125.87 307.473 125.458Z" fill="#DD53FF"/>
<path d="M322.5 144.029C322.5 143.617 322.088 143.617 321.882 143.617C321.882 143.617 321.882 143.617 321.676 143.617C321.264 143.617 318.998 144.029 316.938 142.793C315.29 141.763 314.054 139.703 313.642 137.025C313.642 136.613 313.436 136.407 313.436 136.201C313.436 135.995 313.024 135.789 312.818 135.789C312.612 135.789 312.406 136.201 312.406 136.407C312.406 136.613 312.406 136.819 312.612 137.025C312.818 138.261 313.024 141.351 311.788 143.617C311.17 144.647 309.934 145.471 308.492 145.677C308.286 145.677 308.08 146.089 308.08 146.295C308.08 146.501 308.492 146.913 308.698 146.707C308.904 146.707 314.672 146.089 316.114 152.887C316.114 153.093 316.32 153.299 316.732 153.299C316.938 153.299 317.35 153.093 317.144 152.681C317.144 152.475 316.938 145.677 322.088 144.441H322.294C322.294 144.647 322.5 144.441 322.5 144.029Z" fill="#DD53FF"/>
<path d="M175.498 201.987C175.292 201.575 175.292 200.957 175.498 200.545C175.91 199.515 176.322 198.485 176.94 197.455C177.146 196.837 177.352 196.219 177.764 195.601C178.382 194.159 179 192.717 179.824 191.481C180.854 189.421 182.09 187.361 182.914 185.301C183.326 184.065 183.944 182.829 184.356 181.593C184.768 180.563 185.386 179.533 185.798 178.503C185.798 178.297 186.004 178.297 186.004 178.297C187.24 177.061 188.476 176.031 189.712 175.001C189.918 174.795 190.124 174.589 190.124 174.177C190.33 173.353 190.33 172.323 190.536 171.499C190.742 170.675 190.742 170.675 191.566 170.881C191.772 170.881 192.184 171.087 192.39 171.087C192.802 171.293 192.802 171.293 192.596 171.705C192.596 171.911 192.39 171.911 192.39 172.117C191.978 172.735 191.772 173.147 191.36 173.765C191.154 173.971 191.154 174.383 190.948 174.589C190.742 176.031 190.742 177.267 190.948 178.709C190.948 179.121 190.948 179.327 190.948 179.739C190.948 179.945 190.948 180.151 190.742 180.357L190.536 180.563C189.712 182.829 188.888 185.301 188.064 187.567C187.446 189.421 186.622 191.069 185.798 192.717C185.18 193.953 184.562 195.395 183.944 196.837C183.326 198.073 182.914 199.515 182.296 200.957C181.884 201.781 181.472 202.399 180.854 203.223L181.06 203.429C181.266 203.841 181.266 204.253 180.854 204.459C180.648 204.665 180.648 204.871 180.442 205.077V205.283C180.03 205.901 179.618 206.519 179.206 206.931C179.412 207.961 179.206 208.991 178.794 210.021C178.382 210.639 177.352 211.463 176.116 211.257C175.292 211.051 174.468 210.845 173.644 210.639C173.232 210.639 172.82 210.021 172.82 209.403C172.82 208.991 172.82 208.579 173.026 208.373C173.438 207.549 173.85 206.931 174.262 206.313C174.468 206.107 174.468 205.901 174.262 205.695C174.056 205.283 174.262 204.665 174.262 204.253C174.262 204.047 174.468 204.047 174.468 203.841C174.674 203.635 174.674 203.429 174.674 203.223C174.88 202.811 175.086 202.399 175.498 201.987ZM186.004 179.121C186.004 179.327 185.798 179.533 185.798 179.533C185.592 180.357 185.18 181.181 184.974 181.799C184.356 183.653 183.738 185.713 182.708 187.567C181.884 189.215 181.06 190.657 180.236 192.305C179.824 193.335 179.206 194.159 178.794 195.189C178.176 196.631 177.558 197.867 176.94 199.309C176.734 199.721 176.528 200.133 176.528 200.545C176.322 200.957 176.528 201.163 176.94 201.369C177.352 201.575 177.764 201.575 178.176 201.781C178.176 201.781 178.176 201.781 178.176 201.575C178.794 199.927 179.618 198.279 180.442 196.425C181.266 194.777 182.09 192.923 182.914 191.275C183.738 189.627 184.356 187.773 185.18 186.125C186.004 184.271 186.828 182.417 187.652 180.563C187.858 180.357 187.858 179.945 188.064 179.533C187.24 180.151 186.622 179.739 186.004 179.121ZM188.888 179.945C188.682 180.357 188.682 180.563 188.682 180.769C187.858 182.829 187.034 184.889 186.21 186.949C185.798 187.979 185.386 188.803 184.974 189.833C184.15 191.481 183.532 193.129 182.708 194.983C181.678 197.043 180.854 199.103 179.824 201.163C179.618 201.575 179.412 201.987 179.412 202.399C179.824 202.605 180.236 202.399 180.648 202.193C180.854 201.987 181.266 201.987 181.472 201.781C182.502 199.515 183.326 197.455 184.356 195.189C184.768 194.159 185.386 193.129 185.798 191.893C186.21 190.863 186.828 189.833 187.24 188.597C188.27 185.919 189.3 183.447 190.124 180.769V180.563C189.712 180.563 189.3 180.357 188.888 179.945ZM174.262 209.197C174.88 209.403 175.292 209.403 175.91 209.609C176.322 209.609 176.734 209.815 177.146 209.815C177.764 209.815 178.382 209.403 178.382 208.785C178.382 208.373 178.382 208.167 178.588 207.755C178.588 207.549 178.588 207.549 178.588 207.343C177.146 207.549 175.91 207.549 175.086 206.313C174.468 206.931 174.056 208.579 174.262 209.197ZM190.536 175.207C189.712 175.619 189.094 176.237 188.476 176.855C187.858 177.473 187.24 178.091 186.622 178.503C187.034 179.121 187.652 179.121 188.064 178.915C188.27 178.709 188.476 178.709 188.682 178.503C188.682 178.297 188.888 178.297 189.094 178.297L189.3 178.503C189.3 178.709 189.3 178.915 189.3 179.121C189.506 179.533 189.712 179.739 190.124 179.533C190.33 179.533 190.33 179.533 190.536 179.327C190.536 178.297 190.536 176.855 190.536 175.207ZM175.704 203.017C175.91 203.223 175.91 203.223 175.91 203.223L176.116 203.429C177.352 203.841 178.382 204.047 179.618 204.047C180.03 204.047 180.236 204.047 180.442 203.635C180.442 203.429 180.236 203.429 180.236 203.223C179.618 203.429 179 203.429 178.382 203.223C177.558 203.017 176.734 202.811 175.91 202.605C176.116 202.811 175.91 203.017 175.704 203.017ZM177.97 206.725C177.352 206.519 176.734 206.519 176.322 206.107C175.91 205.695 175.292 205.489 174.88 205.077C174.88 206.313 176.734 207.137 177.97 206.725ZM179.618 205.489C178.382 205.901 177.146 205.489 175.91 204.871C177.146 206.107 179 206.107 179.618 205.489ZM191.566 171.499C191.36 171.499 191.36 171.499 191.154 171.499C191.154 171.705 191.154 171.705 191.154 171.911C191.566 171.499 191.566 171.499 191.566 171.499Z" fill="#DD53FF"/>
<path d="M252.711 280.185C252.093 279.979 251.475 279.773 251.063 279.567C250.033 279.155 250.033 278.331 250.445 277.507C250.651 277.095 251.063 276.683 251.063 276.271C251.063 275.241 250.651 274.211 249.827 273.387C249.209 272.769 248.591 272.357 247.973 271.945C247.149 271.327 246.119 270.915 245.295 270.297C244.059 269.473 243.029 268.649 241.999 267.619C240.351 265.765 239.527 263.499 239.733 261.027C239.733 259.173 240.145 257.319 240.969 255.465C242.205 252.169 244.471 249.903 247.561 248.667C249.415 247.843 251.475 247.225 253.535 247.019C257.655 246.401 261.363 247.637 264.041 250.933C266.307 253.405 267.543 256.495 267.749 259.791C267.749 261.027 267.543 262.057 267.131 263.293C266.719 264.323 266.101 265.353 265.483 266.177C265.277 266.383 265.277 266.383 265.071 266.589C263.835 267.825 263.217 269.473 263.011 271.121C263.011 271.533 262.805 271.945 262.599 272.563C262.599 272.769 262.599 273.181 262.599 273.181C263.011 273.593 263.423 273.799 263.835 274.211C264.247 274.829 264.247 275.447 263.835 276.065C263.423 276.477 263.217 276.889 262.805 277.301C263.011 277.919 263.011 278.537 262.599 279.155C262.393 279.361 262.393 279.567 262.187 279.979C261.981 280.185 262.187 280.391 262.187 280.597C262.599 281.215 262.393 281.627 262.187 282.245C261.569 283.481 260.745 284.511 259.303 284.923C258.273 285.335 257.037 285.541 256.007 285.541C255.595 285.541 255.389 285.541 254.977 285.335C254.359 285.129 253.741 284.511 253.947 283.687C253.947 283.275 253.741 283.069 253.329 282.863C252.711 282.657 252.711 282.039 252.711 281.421C252.711 281.009 252.711 280.597 252.711 280.185ZM253.535 263.911C253.329 263.705 253.123 263.499 253.123 263.293C252.093 262.057 251.475 260.821 251.269 259.173C251.269 258.967 251.269 258.555 251.269 258.349C251.475 257.731 252.093 257.319 252.711 257.525C252.917 257.525 253.123 257.731 253.329 257.937C253.741 258.349 253.947 258.761 254.153 259.173C254.771 260.203 255.183 261.439 255.389 262.675C255.389 262.881 255.389 263.293 255.801 263.293C256.213 263.293 256.625 263.499 257.037 263.293C257.037 263.087 257.037 263.087 257.037 263.087C257.243 261.851 257.449 260.409 257.861 259.173C258.067 258.555 258.479 257.937 259.303 257.731C259.921 257.525 260.333 257.731 260.745 258.143C260.951 258.555 261.157 259.173 261.157 259.585C261.157 260.409 260.951 261.233 260.745 261.851C260.333 262.881 259.715 263.911 258.685 264.323C258.273 264.529 258.273 264.735 258.273 264.941C258.273 265.765 258.479 266.795 258.479 267.619C258.685 269.061 258.891 270.503 259.097 271.739C259.097 272.357 259.303 272.769 259.303 273.387C259.921 273.181 260.539 273.181 261.157 273.181C262.187 273.181 262.187 272.769 261.981 271.945C261.981 271.739 261.775 271.533 261.775 271.327C261.775 270.915 261.569 270.503 261.775 270.091C261.981 268.031 262.599 266.177 263.835 264.735C264.247 264.323 264.659 263.705 264.865 263.293C266.101 261.645 266.513 259.791 266.101 257.731C265.895 256.907 265.689 255.877 265.277 255.053C264.247 252.581 262.599 250.521 260.333 249.285C258.479 248.255 256.625 248.049 254.565 248.255C252.917 248.461 251.475 248.873 250.033 249.491C246.531 250.727 244.059 252.993 242.823 256.495C242.411 257.731 241.999 259.173 241.793 260.615C241.587 262.675 242.205 264.529 243.647 266.177C244.677 267.413 246.119 268.237 247.561 269.061C248.591 269.679 249.621 270.297 250.651 271.121C251.681 271.945 252.505 273.181 252.917 274.417C252.917 274.623 253.123 274.829 253.123 275.035C253.741 274.829 254.359 274.623 254.977 274.417C255.183 273.593 254.977 272.769 254.771 271.945C254.153 270.297 253.329 268.649 252.505 267.001C252.299 266.589 251.887 265.971 251.269 265.971C251.063 265.971 250.857 265.765 250.651 265.765C249.003 264.941 247.561 263.705 246.531 262.057C246.325 261.645 246.119 261.233 246.119 260.615C246.119 259.791 246.531 259.585 247.149 259.585C247.767 259.585 248.385 259.791 249.003 260.203C250.239 261.027 251.063 262.263 251.887 263.499C252.093 263.911 252.299 264.117 252.505 264.529C252.917 264.735 253.329 264.529 253.535 263.911ZM254.977 264.735C254.565 265.559 253.947 266.177 253.123 266.589C253.329 266.795 253.329 267.001 253.329 267.207C254.565 269.473 255.801 271.739 256.007 274.417C256.625 274.211 257.243 274.005 258.067 273.799C257.449 270.915 256.831 268.031 256.625 265.147C256.007 264.941 255.595 264.735 254.977 264.735ZM262.805 274.623C262.393 274.211 261.775 274.005 261.363 274.211C260.333 274.623 259.303 275.035 258.273 275.447C257.037 276.065 255.595 276.477 254.359 277.095C253.535 277.301 252.917 277.507 251.887 277.713C251.887 277.713 251.681 277.919 251.681 278.125C252.711 278.743 253.741 278.537 254.771 278.537C257.449 278.125 259.921 277.095 262.187 275.447C262.599 275.035 262.599 274.829 262.805 274.623ZM261.569 277.713C259.097 279.361 256.625 280.185 253.741 280.185C253.535 281.421 253.947 281.833 255.183 281.627C255.183 281.627 255.183 281.627 255.389 281.627C256.831 281.009 258.479 280.597 259.921 279.979C260.745 279.773 261.363 278.949 261.569 277.713ZM255.183 283.069C255.183 283.687 255.183 283.893 255.801 283.893C256.419 283.893 257.037 283.893 257.861 283.687C259.303 283.481 260.333 282.657 261.363 281.627C261.569 281.421 261.775 281.009 261.569 280.597C259.509 281.833 257.449 282.451 255.183 283.069ZM250.033 264.323C249.209 263.293 248.591 262.263 247.355 261.645C247.767 262.469 248.797 263.705 250.033 264.323ZM259.303 259.585C258.685 260.203 258.273 261.645 258.479 262.263C259.097 261.439 259.303 260.615 259.303 259.585Z" fill="#DD53FF"/>
<path d="M257.848 231.929C258.466 232.547 258.672 233.371 258.466 234.195C257.848 236.461 257.23 238.727 256.612 240.993C256.406 241.817 256.2 241.817 255.376 241.817C254.758 241.611 254.346 241.199 254.552 240.581C255.17 238.315 255.788 235.843 256.406 233.577C256.612 232.753 257.23 232.135 257.848 231.929Z" fill="#DD53FF"/>
<path d="M243.235 231.929C243.853 232.135 244.059 232.547 244.059 232.959C244.677 234.607 245.089 236.255 245.501 237.697C245.913 238.933 246.119 240.169 246.531 241.405C246.531 241.611 246.531 242.023 246.737 242.229C246.531 242.229 246.325 242.435 246.119 242.435C245.501 242.641 245.089 242.435 244.883 241.817C244.265 239.551 243.235 237.079 243.029 234.607C243.029 233.783 243.029 233.165 242.823 232.341C243.029 232.341 243.235 232.135 243.235 231.929Z" fill="#DD53FF"/>
<path d="M265.88 236.471C265.88 236.883 265.88 237.295 265.674 237.501C265.262 238.737 264.85 239.973 264.026 241.003C263.408 241.621 262.996 242.445 262.378 243.269C262.172 243.475 261.966 243.681 261.554 243.681C260.73 243.681 260.112 243.063 260.524 242.239C260.524 242.033 260.73 242.033 260.73 241.827C261.554 240.797 262.172 239.767 262.996 238.737C263.614 237.913 264.438 237.295 265.056 236.677C265.468 236.677 265.674 236.677 265.88 236.471Z" fill="#DD53FF"/>
<path d="M241.796 247.183C241.384 247.183 241.178 247.389 241.178 247.389C240.56 247.183 239.736 247.183 239.118 246.977C237.47 246.565 235.822 245.947 234.174 245.329C233.968 245.329 233.968 245.329 233.762 245.123C233.35 244.917 233.144 244.505 233.144 244.093C233.35 243.681 233.762 243.269 234.174 243.475C236.028 244.093 237.882 244.505 239.736 245.329C240.56 245.741 241.178 246.359 241.796 247.183Z" fill="#DD53FF"/>
<path d="M1095.59 196.013C1095.38 195.601 1095.17 195.395 1094.97 194.983C1094.76 194.365 1094.97 193.953 1095.38 193.747C1095.59 193.747 1096 193.541 1096.2 193.335C1096.62 192.717 1096.82 192.099 1096.82 191.481C1096.82 191.069 1096.62 190.451 1096.62 190.039C1096.41 189.421 1096.2 188.803 1096 188.185C1095.59 187.361 1095.38 186.537 1095.38 185.507C1095.17 183.859 1095.79 182.623 1096.82 181.387C1097.65 180.563 1098.47 179.739 1099.5 179.121C1101.35 178.091 1103.41 177.679 1105.47 178.297C1106.71 178.709 1107.95 179.121 1108.98 179.739C1111.24 181.181 1112.48 183.035 1112.68 185.713C1112.68 187.773 1112.27 189.833 1111.04 191.481C1110.62 192.099 1110.01 192.511 1109.39 192.923C1108.77 193.335 1108.15 193.541 1107.33 193.747C1107.12 193.747 1107.12 193.747 1106.92 193.747C1105.89 193.953 1104.86 194.365 1104.24 195.189C1104.03 195.395 1103.83 195.601 1103.62 195.807C1103.41 196.013 1103.41 196.013 1103.21 196.013C1103.21 196.425 1103.41 196.631 1103.41 197.043C1103.41 197.455 1103.21 197.867 1102.59 197.867C1102.18 197.867 1101.97 197.867 1101.56 198.073C1101.35 198.485 1101.15 198.691 1100.74 198.897C1100.53 198.897 1100.53 199.103 1100.32 199.103C1100.12 199.103 1100.12 199.309 1100.12 199.515C1100.12 199.927 1099.71 200.133 1099.5 200.339C1098.68 200.751 1097.85 200.751 1097.03 200.545C1096.41 200.339 1095.79 199.927 1095.17 199.515C1094.97 199.309 1094.76 199.309 1094.76 199.103C1094.56 198.691 1094.56 198.279 1094.76 197.867C1094.97 197.661 1094.97 197.455 1094.76 197.249C1094.56 196.837 1094.76 196.631 1094.97 196.219C1095.38 196.425 1095.38 196.219 1095.59 196.013ZM1102.38 188.185C1102.38 187.979 1102.38 187.773 1102.38 187.773C1102.38 186.743 1102.59 185.919 1103 185.095C1103 184.889 1103.21 184.683 1103.41 184.683C1103.83 184.477 1104.24 184.477 1104.44 184.889C1104.44 185.095 1104.44 185.095 1104.44 185.301C1104.44 185.507 1104.44 185.919 1104.44 186.125C1104.24 186.949 1104.03 187.567 1103.62 188.391C1103.62 188.597 1103.41 188.597 1103.62 188.803C1103.83 189.009 1103.83 189.215 1104.24 189.215C1104.24 189.215 1104.24 189.215 1104.44 189.009C1105.06 188.391 1105.68 187.773 1106.3 187.361C1106.71 187.155 1107.12 187.155 1107.53 187.155C1107.95 187.361 1108.15 187.567 1107.95 187.979C1107.95 188.391 1107.74 188.597 1107.53 188.803C1107.12 189.215 1106.92 189.421 1106.5 189.833C1105.89 190.245 1105.27 190.451 1104.44 190.245C1104.24 190.245 1104.03 190.245 1104.03 190.451C1103.83 190.863 1103.41 191.275 1103.21 191.893C1102.8 192.717 1102.38 193.335 1101.77 194.159C1101.56 194.365 1101.35 194.777 1101.15 194.983C1101.56 195.189 1101.77 195.395 1102.18 195.601C1102.8 196.013 1102.8 195.807 1103 195.395C1103 195.189 1103 195.189 1103.21 194.983C1103.41 194.777 1103.41 194.571 1103.62 194.365C1104.44 193.541 1105.47 192.717 1106.71 192.511C1107.12 192.511 1107.53 192.305 1107.74 192.305C1108.98 191.893 1110.01 191.275 1110.42 190.039C1110.62 189.421 1110.83 189.009 1111.04 188.391C1111.45 186.743 1111.45 185.095 1110.83 183.653C1110.42 182.417 1109.59 181.593 1108.36 180.975C1107.53 180.357 1106.5 180.151 1105.68 179.739C1103.41 178.915 1101.35 179.121 1099.29 180.357C1098.47 180.769 1097.85 181.387 1097.23 182.005C1096.2 183.035 1095.79 184.065 1096 185.507C1096.2 186.537 1096.41 187.361 1096.82 188.391C1097.03 189.009 1097.23 189.833 1097.44 190.657C1097.65 191.481 1097.65 192.305 1097.23 193.129C1097.23 193.335 1097.23 193.335 1097.03 193.541C1097.44 193.747 1097.85 193.953 1098.06 193.953C1098.47 193.541 1098.68 193.129 1098.88 192.717C1099.29 191.687 1099.5 190.451 1099.71 189.421C1099.71 189.009 1099.91 188.803 1099.5 188.597C1099.5 188.597 1099.29 188.391 1099.29 188.185C1098.88 187.155 1098.68 185.919 1098.68 184.683C1098.68 184.271 1098.88 184.065 1099.09 183.859C1099.29 183.447 1099.71 183.447 1100.12 183.653C1100.53 183.859 1100.74 184.271 1100.74 184.683C1100.94 185.507 1100.94 186.537 1100.94 187.567C1100.94 187.773 1100.94 187.979 1100.94 188.391C1101.77 188.597 1102.18 188.391 1102.38 188.185ZM1102.8 189.215C1102.18 189.421 1101.77 189.627 1101.15 189.421C1101.15 189.627 1101.15 189.627 1101.15 189.833C1100.74 191.481 1100.53 192.923 1099.71 194.365C1100.12 194.571 1100.53 194.777 1100.94 194.777C1101.77 193.129 1102.59 191.481 1103.62 189.833C1103.21 189.833 1103 189.627 1102.8 189.215ZM1102.8 197.249C1102.8 196.837 1102.59 196.631 1102.18 196.425C1101.56 196.219 1100.94 196.013 1100.12 195.807C1099.29 195.601 1098.47 195.395 1097.65 194.983C1097.23 194.777 1096.82 194.571 1096.2 194.365C1096.2 194.365 1096 194.365 1095.79 194.571C1096 195.189 1096.62 195.601 1097.23 196.013C1098.68 196.837 1100.32 197.249 1102.18 197.455C1102.38 197.249 1102.59 197.249 1102.8 197.249ZM1100.94 198.279C1099.09 198.073 1097.44 197.455 1096.2 196.425C1095.59 197.043 1095.59 197.455 1096.2 197.661C1097.23 198.073 1098.06 198.279 1099.09 198.691C1099.71 198.897 1100.32 198.691 1100.94 198.279ZM1095.79 198.485C1095.59 198.897 1095.59 198.897 1095.79 199.103C1096.2 199.309 1096.41 199.515 1096.82 199.721C1097.65 200.133 1098.47 200.133 1099.29 200.133C1099.5 200.133 1099.71 199.927 1099.71 199.721C1098.26 199.515 1097.03 198.897 1095.79 198.485ZM1100.53 187.155C1100.53 186.331 1100.74 185.507 1100.32 184.683C1100.12 185.301 1100.12 186.331 1100.53 187.155ZM1106.92 188.391C1106.5 188.391 1105.68 189.009 1105.47 189.421C1106.09 189.215 1106.5 188.803 1106.92 188.391Z" fill="#DD53FF"/>
<path d="M1116.99 174.373C1116.99 174.991 1116.79 175.403 1116.38 175.609C1115.14 176.433 1114.11 177.463 1112.87 178.287C1112.46 178.493 1112.26 178.493 1112.05 178.287C1111.84 178.081 1111.84 177.669 1112.26 177.257C1113.49 176.227 1114.73 175.403 1115.96 174.579C1116.17 174.167 1116.58 174.167 1116.99 174.373Z" fill="#DD53FF"/>
<path d="M1110.01 168.584C1110.21 168.996 1110.01 169.202 1110.01 169.408C1109.59 170.438 1109.18 171.468 1108.77 172.292C1108.56 173.116 1108.15 173.734 1107.74 174.558C1107.74 174.764 1107.53 174.97 1107.53 174.97C1107.33 174.97 1107.33 174.97 1107.12 174.764C1106.71 174.558 1106.71 174.352 1106.71 173.94C1107.33 172.498 1107.74 171.056 1108.56 169.82C1108.77 169.408 1109.18 168.996 1109.39 168.79C1109.59 168.79 1109.8 168.584 1110.01 168.584Z" fill="#DD53FF"/>
<path d="M1119.26 179.729C1119.05 179.935 1118.84 180.141 1118.84 180.141C1118.23 180.553 1117.4 180.965 1116.58 181.171C1115.96 181.377 1115.55 181.377 1114.93 181.583C1114.72 181.583 1114.52 181.583 1114.31 181.583C1113.9 181.171 1113.9 180.759 1114.31 180.347C1114.31 180.347 1114.52 180.347 1114.52 180.141C1115.34 179.935 1116.17 179.729 1116.78 179.523C1117.4 179.317 1118.02 179.317 1118.64 179.317C1119.05 179.729 1119.05 179.729 1119.26 179.729Z" fill="#DD53FF"/>
<path d="M1103.21 175.588C1103 175.588 1102.8 175.588 1102.8 175.382C1102.59 174.97 1102.18 174.764 1101.97 174.352C1101.36 173.528 1100.74 172.498 1100.12 171.674L1099.91 171.468C1099.71 171.262 1099.91 170.85 1100.12 170.85C1100.33 170.644 1100.74 170.644 1100.94 171.056C1101.56 172.086 1102.39 173.116 1103 174.146C1103.21 174.352 1103.21 174.764 1103.21 175.588Z" fill="#DD53FF"/>
<path d="M1045.36 240.334C1045.36 240.128 1045.16 239.922 1045.16 239.51C1044.95 239.098 1044.75 238.892 1044.54 238.48C1044.33 238.068 1043.92 237.45 1043.72 237.038C1038.98 227.356 1034.24 217.674 1029.5 207.992C1027.85 204.696 1026.21 201.4 1024.76 197.898L1023.12 194.396C1022.5 192.954 1021.88 191.718 1021.26 190.276C1020.85 189.452 1020.44 188.834 1019.82 188.628C1019 188.422 1018.38 188.834 1017.76 189.246C1017.55 189.246 1017.55 189.452 1017.35 189.452C1016.52 190.07 1016.32 191.1 1016.73 191.924C1016.94 192.336 1017.14 192.748 1017.35 193.366L1019.61 197.898C1021.06 200.988 1022.5 204.078 1023.94 206.962C1025.79 210.67 1027.65 214.378 1029.5 218.292C1031.77 223.03 1034.24 227.768 1036.51 232.506C1036.92 233.33 1037.33 234.154 1037.74 234.978C1038.98 237.244 1040.01 239.51 1040.83 241.982C1041.04 242.6 1041.45 243.012 1041.86 243.218H1042.07C1042.48 243.218 1042.89 243.218 1043.3 243.012C1043.92 242.806 1044.33 242.394 1044.95 241.982C1045.16 241.776 1045.36 241.57 1045.36 241.364L1045.78 240.746L1045.36 240.334ZM1025.79 206.962L1025.59 206.55L1026 206.344L1026.21 206.756L1025.79 206.962Z" fill="#DD53FF"/>
<path d="M1034.65 183.025C1034.65 182.819 1034.65 182.613 1034.44 182.613C1034.23 182.613 1033.2 182.201 1032.38 181.171C1031.76 180.347 1031.76 179.111 1032.17 177.875C1032.17 177.669 1032.17 177.463 1032.17 177.463C1032.17 177.257 1032.17 177.257 1031.97 177.051C1031.76 177.051 1031.76 177.051 1031.56 177.257C1031.56 177.463 1031.56 177.463 1031.56 177.669C1031.35 178.287 1030.94 179.729 1029.7 180.347C1029.08 180.759 1028.47 180.759 1027.85 180.553C1027.64 180.553 1027.64 180.553 1027.44 180.759C1027.44 180.965 1027.44 180.965 1027.64 181.171C1027.85 181.171 1030.53 182.201 1029.7 185.497C1029.7 185.703 1029.7 185.703 1029.91 185.909C1030.11 185.909 1030.11 185.909 1030.32 185.703C1030.32 185.497 1031.76 182.407 1034.23 183.025C1034.44 183.231 1034.65 183.231 1034.65 183.025Z" fill="#DD53FF"/>
<path d="M987.711 193.757C987.711 193.551 987.711 193.551 987.505 193.551C987.299 193.551 986.475 193.345 985.857 192.521C985.445 191.903 985.445 190.873 985.651 189.843C985.651 189.637 985.651 189.637 985.651 189.637C985.651 189.431 985.651 189.431 985.445 189.431C985.239 189.431 985.239 189.431 985.239 189.637V189.843C985.033 190.255 984.621 191.491 983.797 192.109C983.385 192.315 982.767 192.521 982.355 192.315C982.149 192.315 982.149 192.315 982.149 192.521C982.149 192.727 982.149 192.727 982.355 192.727C982.355 192.727 984.621 193.551 984.003 196.229C984.003 196.435 984.003 196.435 984.209 196.435C984.415 196.435 984.415 196.435 984.415 196.229C984.415 196.023 985.445 193.757 987.505 194.169C987.711 193.963 987.711 193.963 987.711 193.757Z" fill="#DD53FF"/>
<path d="M1045.15 197.053C1045.15 196.847 1044.94 196.847 1045.15 197.053C1044.94 196.847 1044.94 196.847 1045.15 197.053C1044.94 196.847 1044.94 196.847 1044.94 196.847C1044.94 196.847 1044.94 196.847 1044.74 196.847C1044.74 196.847 1044.74 196.847 1044.53 196.847C1044.53 196.847 1044.53 196.847 1044.33 196.847C1044.33 196.847 1044.33 196.847 1044.12 196.847C1044.12 196.847 1044.12 196.847 1043.91 196.847C1043.91 196.847 1043.91 196.847 1043.71 196.847C1043.71 196.847 1043.71 196.847 1043.5 196.847C1043.5 196.847 1043.5 196.847 1043.5 196.641C1043.5 196.641 1043.5 196.641 1043.5 196.435C1043.5 196.435 1043.5 196.435 1043.5 196.229C1043.5 196.229 1043.5 196.229 1043.5 196.023C1043.5 196.023 1043.5 196.023 1043.5 195.817C1043.5 195.817 1043.5 195.817 1043.5 195.611C1043.5 195.611 1043.5 195.611 1043.5 195.405V195.199V194.993C1043.5 194.993 1043.5 194.993 1043.5 194.787C1043.5 194.787 1043.5 194.787 1043.5 194.581V194.375C1043.5 194.375 1043.5 194.375 1043.5 194.169V193.963V193.757V193.551V193.345C1043.5 193.139 1043.5 192.933 1043.5 192.727C1043.5 192.727 1043.5 192.727 1043.3 192.727C1043.3 192.727 1043.3 192.727 1043.3 192.933V193.139C1043.3 193.139 1043.3 193.139 1043.3 193.345V193.551V193.757C1043.3 193.757 1043.3 193.757 1043.3 193.963C1043.3 193.963 1043.09 193.963 1043.09 194.169C1043.09 194.169 1043.09 194.169 1042.88 194.169C1042.88 194.169 1042.88 194.169 1042.68 194.169C1042.68 194.169 1042.68 194.169 1042.47 194.169C1042.47 194.169 1042.47 194.169 1042.27 194.169H1042.06H1041.85C1041.65 194.169 1041.65 194.169 1041.44 194.169H1041.24C1041.24 194.169 1041.24 194.169 1041.03 194.169C1041.03 194.169 1041.03 194.169 1040.82 194.169C1040.82 194.169 1040.82 194.169 1040.62 194.169H1040.41C1040.41 194.169 1040.41 194.169 1040.62 194.169H1040.82H1041.03H1041.24C1041.24 194.169 1041.24 194.169 1041.44 194.169H1041.65H1041.85H1042.06H1042.27C1042.27 194.169 1042.47 194.169 1042.47 194.375L1042.68 194.581C1042.68 194.581 1042.68 194.581 1042.68 194.787C1042.68 194.787 1042.68 194.787 1042.68 194.993C1042.68 194.993 1042.68 194.993 1042.68 195.199C1042.68 195.199 1042.68 195.199 1042.68 195.405V195.611C1042.68 195.611 1042.68 195.611 1042.68 195.817C1042.68 195.817 1042.68 195.817 1042.68 196.023V195.817V195.611V195.405V195.199C1042.68 195.199 1042.68 195.199 1042.68 194.993V194.787C1042.68 194.787 1042.68 194.787 1042.68 194.581C1042.68 194.581 1042.68 194.581 1042.68 194.375C1042.68 194.375 1042.68 194.169 1042.88 194.169C1042.88 194.169 1042.88 194.169 1043.09 193.963C1043.09 193.963 1043.3 193.963 1043.3 193.757C1043.3 193.757 1043.5 193.757 1043.5 193.551H1043.71H1043.91H1044.12C1044.12 193.551 1044.12 193.551 1044.33 193.551H1044.53C1044.53 193.551 1044.53 193.551 1044.74 193.551H1044.94H1045.15C1045.15 193.551 1045.15 193.551 1045.36 193.551H1045.56C1044.74 197.259 1044.94 197.259 1045.15 197.053C1044.94 197.259 1044.94 197.259 1045.15 197.053ZM1043.3 196.641C1043.09 196.641 1043.09 196.435 1043.3 196.641C1043.09 196.435 1043.09 196.435 1043.3 196.641C1043.3 196.435 1043.09 196.435 1043.3 196.641ZM1041.24 193.345C1041.03 193.345 1041.03 193.345 1041.24 193.345ZM1041.03 193.345C1041.24 193.345 1041.24 193.345 1041.03 193.345ZM1042.47 197.259C1042.47 197.053 1042.47 197.053 1042.47 197.259ZM1043.5 196.847C1043.3 196.847 1043.3 196.847 1043.5 196.847C1043.3 196.847 1043.09 196.847 1043.09 196.847C1043.09 196.847 1043.09 196.847 1042.88 196.847C1042.88 196.847 1042.88 196.847 1042.68 196.847C1042.68 196.847 1042.68 196.847 1042.68 197.053V197.259C1042.68 197.259 1042.68 197.259 1042.68 197.465C1042.68 197.465 1042.68 197.465 1042.68 197.671V197.465V197.259V197.053C1042.68 197.053 1042.68 197.053 1042.68 196.847V196.641C1042.68 196.641 1042.68 196.641 1042.68 196.435V196.229C1042.68 196.229 1042.68 196.229 1042.68 196.023C1042.68 196.023 1042.68 196.023 1042.68 195.817V195.611V195.405C1042.68 195.405 1042.68 195.199 1042.47 195.199C1042.47 195.199 1042.47 195.199 1042.47 194.993C1042.47 194.993 1042.47 194.993 1042.27 194.993C1042.27 194.993 1042.27 194.993 1042.06 194.993C1042.06 194.993 1042.06 194.993 1041.85 194.993H1041.65C1041.65 194.993 1041.65 194.993 1041.44 194.993C1041.44 194.993 1041.44 194.993 1041.24 194.993C1041.24 194.993 1041.24 194.993 1041.44 194.993H1041.65C1041.65 194.993 1041.65 194.993 1041.85 194.993C1041.85 194.993 1041.85 194.993 1042.06 194.993C1042.06 194.993 1042.06 194.993 1042.27 194.993C1042.27 194.993 1042.27 194.787 1042.47 194.787C1042.47 194.787 1042.47 194.787 1042.47 194.581C1042.47 194.581 1042.47 194.581 1042.47 194.375C1042.47 194.375 1042.47 194.375 1042.47 194.169C1042.47 194.169 1042.47 194.169 1042.47 193.963C1042.47 193.963 1042.47 193.963 1042.47 193.757C1042.47 193.757 1042.47 193.757 1042.47 193.551C1042.47 193.551 1042.47 193.551 1042.47 193.345C1042.47 193.345 1042.47 193.345 1042.47 193.551C1042.47 193.551 1042.47 193.551 1042.47 193.757C1042.47 193.757 1042.47 193.757 1042.47 193.963V194.169C1042.47 194.169 1042.47 194.169 1042.47 194.375V194.581C1042.47 194.581 1042.47 194.581 1042.47 194.787C1042.47 194.787 1042.47 194.787 1042.47 194.993H1042.68C1042.68 194.993 1042.68 194.993 1042.88 194.993C1043.3 196.641 1043.3 196.641 1043.5 196.847Z" fill="#DD53FF"/>
<path d="M1012.83 213.142C1013.03 213.142 1013.03 213.142 1012.83 213.142C1012.83 212.936 1012.83 212.936 1012.83 212.936C1012.83 212.936 1012.83 212.936 1012.62 212.936H1012.41H1012.21C1012.21 212.936 1012.21 212.936 1012 212.936C1012 212.936 1012 212.936 1011.8 212.936C1011.8 212.936 1011.8 212.936 1011.59 212.936C1011.59 212.936 1011.38 212.936 1011.38 212.73H1011.18C1011.18 212.73 1010.97 212.73 1010.97 212.524H1010.77H1010.56C1010.56 212.524 1010.56 212.524 1010.35 212.524H1010.15H1009.94H1009.74C1009.74 212.524 1009.53 212.524 1009.53 212.318C1009.53 212.318 1009.53 212.318 1009.32 212.318H1009.12C1009.12 212.318 1008.91 212.318 1008.91 212.112C1008.91 212.112 1008.91 212.112 1008.71 212.112C1008.71 212.112 1008.5 212.112 1008.5 211.906L1008.29 211.7C1008.29 211.7 1008.29 211.7 1008.09 211.494C1008.09 211.494 1008.09 211.494 1008.09 211.288C1008.09 211.288 1008.09 211.082 1007.88 211.082C1007.88 211.082 1007.88 211.082 1007.88 210.876C1007.88 210.876 1007.88 210.876 1007.88 210.67C1007.88 210.67 1007.88 210.67 1007.88 210.464C1007.88 210.464 1007.68 210.258 1007.88 210.258V210.052V209.846V209.64V209.434V209.228C1007.88 209.022 1007.88 208.816 1007.88 208.816C1007.88 208.61 1007.88 208.61 1007.88 208.404V208.198V207.992V207.786C1007.88 207.58 1007.88 207.374 1007.88 207.374V207.168C1007.88 206.962 1007.88 206.962 1007.88 206.756C1007.88 206.55 1007.88 206.55 1007.88 206.344C1007.88 206.138 1007.88 206.138 1007.88 205.932C1007.88 205.726 1007.88 205.726 1007.88 205.52C1007.88 205.108 1007.88 204.902 1007.88 204.49C1007.88 204.49 1007.88 204.49 1007.88 204.284H1007.68C1007.68 204.284 1007.68 204.284 1007.47 204.284C1007.47 204.284 1007.47 204.284 1007.47 204.49C1007.47 204.49 1007.47 204.49 1007.47 204.696C1007.47 204.696 1007.47 204.696 1007.47 204.902C1007.47 204.902 1007.47 204.902 1007.47 205.108V205.314V205.52V205.726C1007.47 205.932 1007.47 205.932 1007.47 206.138V206.344V206.55V206.756C1007.47 206.756 1007.47 206.756 1007.47 206.962C1007.47 206.962 1007.47 206.962 1007.47 207.168C1007.47 207.168 1007.47 207.168 1007.47 207.374C1007.47 207.374 1007.47 207.374 1007.47 207.58C1007.47 207.58 1007.47 207.58 1007.47 207.786C1007.47 207.786 1007.47 207.786 1007.47 207.992C1007.47 207.992 1007.47 208.198 1007.26 208.198C1007.26 208.198 1007.26 208.198 1007.26 208.404C1007.26 208.404 1007.26 208.404 1007.26 208.61V208.816C1007.26 208.816 1007.26 208.816 1007.26 209.022V209.228V209.434C1007.26 209.434 1007.26 209.434 1007.26 209.64C1007.26 209.64 1007.26 209.64 1007.26 209.846H1007.06C1007.06 209.846 1007.06 209.846 1007.06 210.052L1006.85 210.258C1006.85 210.258 1006.85 210.258 1006.65 210.464C1006.65 210.464 1006.65 210.464 1006.44 210.67C1006.44 210.67 1006.44 210.67 1006.23 210.876C1006.03 210.876 1006.03 211.082 1005.82 211.082H1005.62H1005.41C1005.41 211.082 1005.41 211.082 1005.2 211.082C1005.2 211.082 1005.2 211.082 1005 211.082H1004.79H1004.59C1004.59 211.082 1004.59 211.082 1004.38 211.082H1004.17C1003.97 211.082 1003.97 211.082 1003.76 211.082C1003.56 211.082 1003.56 211.082 1003.35 211.082C1003.14 211.082 1002.94 211.082 1002.73 211.082C1002.53 211.082 1002.53 211.082 1002.32 211.082H1002.11H1001.91H1001.7H1001.5H1001.29C1001.29 211.082 1001.29 211.082 1001.08 211.082C1001.08 211.082 1001.08 211.082 1000.88 211.082H1000.67C1000.67 211.082 1000.67 211.082 1000.47 211.082H1000.26C1000.05 211.082 1000.05 211.082 999.849 211.082C999.849 211.082 999.849 211.082 999.849 211.288C999.849 211.288 999.849 211.494 1000.05 211.494C1000.05 211.494 1000.05 211.494 1000.26 211.494H1000.47C1000.47 211.494 1000.67 211.494 1000.67 211.7C1000.88 211.7 1000.88 211.906 1001.08 211.906C1001.08 211.906 1001.29 211.906 1001.29 212.112H1001.5C1001.5 212.112 1001.5 212.112 1001.7 212.112C1001.91 212.112 1002.11 212.318 1002.11 212.318H1002.32C1002.32 212.318 1002.32 212.318 1002.53 212.318H1002.73C1002.73 212.318 1002.94 212.318 1002.94 212.524C1003.14 212.524 1003.14 212.524 1003.35 212.73C1003.35 212.73 1003.35 212.73 1003.56 212.73C1003.56 212.73 1003.56 212.73 1003.76 212.73C1003.97 212.73 1003.97 212.936 1004.17 212.936C1004.38 212.936 1004.38 213.142 1004.59 213.142C1004.59 213.142 1004.59 213.142 1004.59 213.348C1004.59 213.348 1004.59 213.348 1004.59 213.554V213.76C1004.59 213.76 1004.59 213.76 1004.59 213.966C1004.59 213.966 1004.59 213.966 1004.59 214.172C1004.59 214.172 1004.59 214.172 1004.59 214.378V214.584C1004.59 214.584 1004.59 214.584 1004.59 214.79V214.996V215.202V215.408C1004.59 215.408 1004.59 215.408 1004.59 215.614C1004.59 215.614 1004.59 215.614 1004.59 215.82V216.026C1004.59 216.026 1004.59 216.026 1004.59 216.232C1004.59 216.232 1004.59 216.232 1004.59 216.438C1004.59 216.438 1004.59 216.438 1004.59 216.644C1004.59 216.644 1004.59 216.644 1004.59 216.85C1004.59 216.85 1004.59 216.85 1004.59 217.056V217.262C1004.59 217.262 1004.59 217.262 1004.59 217.468C1004.59 217.674 1004.59 217.674 1004.59 217.88C1004.59 217.88 1004.59 217.88 1004.59 218.086V218.292V218.498C1004.59 218.498 1004.59 218.498 1004.59 218.704V218.91C1004.59 218.91 1004.59 218.91 1004.59 219.116V219.322V219.528V219.734C1004.59 219.734 1004.79 219.734 1004.79 219.528C1004.79 219.528 1004.79 219.528 1005 219.528C1005 219.528 1005 219.528 1005 219.322V219.116V218.91C1005 218.704 1005 218.704 1005 218.498C1005 218.292 1005 218.292 1005 218.086V217.88C1005 217.88 1005 217.88 1005 217.674C1005 217.674 1005 217.674 1005 217.468V217.262C1005 217.262 1005 217.262 1005 217.056V216.85C1005 216.85 1005 216.85 1005 216.644V216.438V216.232C1005 216.232 1005 216.232 1005 216.026C1005 216.026 1005 215.82 1005.2 215.82C1005.2 215.82 1005.2 215.82 1005.2 215.614C1005.2 215.614 1005.2 215.614 1005.2 215.408C1005.2 215.408 1005.41 215.408 1005.2 215.202C1005.2 215.202 1005.2 214.996 1005.41 214.996C1005.41 214.996 1005.41 214.996 1005.62 214.79C1005.62 214.79 1005.62 214.79 1005.62 214.584C1005.62 214.378 1005.82 214.378 1005.82 214.172L1006.03 213.966C1006.03 213.966 1006.03 213.966 1006.23 213.966C1006.23 213.966 1006.44 213.966 1006.44 213.76C1006.44 213.76 1006.65 213.554 1006.85 213.554C1007.06 213.554 1007.26 213.348 1007.26 213.348H1007.47C1007.47 213.348 1007.47 213.348 1007.68 213.348H1007.88H1008.09H1008.29H1008.5H1008.71H1008.91C1009.12 213.348 1009.12 213.348 1009.32 213.348C1009.53 213.348 1009.53 213.348 1009.74 213.348H1009.94C1010.15 213.348 1010.15 213.348 1010.35 213.348H1010.56H1010.77C1012.83 213.554 1012.83 213.348 1012.83 213.142ZM1006.65 204.696C1006.65 204.902 1006.65 204.902 1006.65 204.696ZM1006.03 207.168C1005.82 207.168 1005.82 206.962 1006.03 207.168ZM1005.62 207.992C1005.62 207.786 1005.62 207.786 1005.62 207.992ZM1008.5 213.142C1008.71 213.142 1008.71 213.142 1008.5 213.142ZM1008.91 213.142C1008.91 212.936 1008.91 212.936 1008.91 213.142ZM1010.15 212.73C1009.94 212.73 1009.94 212.73 1009.94 212.73C1009.74 212.73 1009.74 212.73 1009.53 212.73H1009.32H1009.12H1008.91C1008.91 212.73 1008.91 212.73 1008.71 212.73C1008.71 212.73 1008.5 212.73 1008.5 212.936C1008.5 212.936 1008.29 212.936 1008.29 213.142L1008.09 213.348C1008.09 213.348 1008.09 213.348 1007.88 213.554C1007.88 213.554 1007.88 213.554 1007.68 213.76C1007.68 213.76 1007.68 213.76 1007.47 213.966C1007.47 213.966 1007.47 214.172 1007.26 214.172C1007.26 214.172 1007.26 214.172 1007.26 214.378L1007.06 214.584C1007.06 214.584 1007.06 214.584 1007.06 214.79C1007.06 214.79 1007.06 214.996 1006.85 214.996C1006.85 214.996 1006.85 215.202 1006.65 215.202C1006.65 215.202 1006.65 215.202 1006.44 215.408C1006.44 215.408 1006.44 215.408 1006.44 215.614C1006.44 215.614 1006.44 215.614 1006.44 215.82C1006.44 215.82 1006.44 215.82 1006.44 216.026C1006.44 216.026 1006.44 216.026 1006.23 216.026L1006.03 216.232V216.438C1006.03 216.438 1006.03 216.644 1005.82 216.644C1005.82 216.438 1005.82 216.438 1005.82 216.232V216.026V215.82V215.614V215.408V215.202V214.996V214.79C1005.82 214.79 1005.82 214.79 1005.82 214.584V214.378C1005.82 214.172 1005.82 214.172 1005.82 213.966C1005.82 213.966 1005.82 213.76 1005.62 213.76C1005.62 213.554 1005.41 213.554 1005.41 213.348C1005.41 213.348 1005.41 213.142 1005.2 213.142C1005.2 213.142 1005.2 213.142 1005 213.142C1005 213.142 1005 213.142 1004.79 212.936C1004.79 212.936 1004.79 212.936 1004.59 212.73C1004.59 212.73 1004.59 212.73 1004.38 212.73C1004.38 212.73 1004.38 212.73 1004.17 212.524C1004.17 212.524 1004.17 212.524 1003.97 212.524C1003.97 212.524 1003.97 212.524 1003.76 212.524H1003.56C1003.56 212.524 1003.56 212.524 1003.35 212.524C1003.35 212.524 1003.14 212.524 1003.14 212.318H1002.94C1002.94 212.318 1002.73 212.318 1002.53 212.112H1002.32C1002.32 212.112 1002.32 212.112 1002.11 212.112H1001.91H1001.7C1001.7 212.112 1001.7 212.112 1001.5 212.112C1001.5 212.112 1001.5 212.112 1001.29 212.112C1001.29 212.112 1001.29 212.112 1001.5 212.112C1001.5 212.112 1001.5 212.112 1001.7 212.112H1001.91H1002.11C1002.11 212.112 1002.11 212.112 1002.32 212.112H1002.53C1002.53 212.112 1002.53 212.112 1002.73 212.112C1002.73 212.112 1002.73 212.112 1002.94 212.112H1003.14H1003.35H1003.56C1003.56 212.112 1003.56 212.112 1003.76 212.112C1003.76 212.112 1003.76 212.112 1003.97 212.112H1004.17H1004.38H1004.59C1004.59 212.112 1004.79 212.112 1004.79 211.906C1004.79 211.906 1004.79 211.7 1005 211.7C1005 211.494 1005.2 211.494 1005.2 211.288C1005.2 211.288 1005.2 211.082 1005.41 211.082C1005.41 211.082 1005.41 210.876 1005.62 210.876V210.67C1005.62 210.67 1005.62 210.67 1005.62 210.464C1005.62 210.464 1005.62 210.258 1005.82 210.258C1005.82 210.258 1005.82 210.258 1005.82 210.052V209.846C1005.82 209.846 1005.82 209.64 1006.03 209.64V209.434C1006.03 209.434 1006.03 209.434 1006.03 209.228V209.434C1006.03 209.434 1006.03 209.434 1006.03 209.64V209.846C1006.03 209.846 1006.03 209.846 1006.03 210.052V210.258V210.464C1006.03 210.67 1006.03 210.67 1006.23 210.876V211.082C1006.23 211.082 1006.23 211.082 1006.23 211.288C1006.23 211.288 1006.23 211.288 1006.23 211.494V211.7C1006.23 211.7 1006.23 211.906 1006.44 211.906C1006.44 211.906 1006.44 211.906 1006.44 212.112C1006.44 212.112 1006.44 212.318 1006.65 212.318C1006.65 212.318 1006.65 212.524 1006.85 212.524C1006.85 212.73 1007.06 212.73 1007.26 212.73H1007.47C1007.47 212.73 1007.47 212.73 1007.68 212.73C1007.68 212.73 1007.68 212.73 1007.88 212.73C1007.88 212.73 1007.88 212.73 1008.09 212.73C1009.94 212.524 1009.94 212.524 1010.15 212.73C1009.94 212.524 1009.94 212.524 1010.15 212.73C1010.15 212.524 1009.94 212.524 1010.15 212.73C1010.15 212.524 1010.15 212.524 1010.15 212.73Z" fill="#DD53FF"/>
<path d="M1012.83 172.704C1012.62 172.498 1012.62 172.498 1012.62 172.498C1012.62 172.498 1012.62 172.498 1012.42 172.498C1012.42 172.498 1012.42 172.498 1012.21 172.498C1012.21 172.498 1012.21 172.498 1012.01 172.498C1012.01 172.498 1012.01 172.498 1011.8 172.498C1011.8 172.498 1011.8 172.498 1011.59 172.498C1011.59 172.498 1011.59 172.498 1011.39 172.498C1011.39 172.498 1011.39 172.498 1011.18 172.498C1011.18 172.498 1011.18 172.498 1011.18 172.292C1011.18 172.292 1011.18 172.292 1011.18 172.086C1011.18 172.086 1011.18 172.086 1011.18 171.88C1011.18 171.88 1011.18 171.88 1011.18 171.674C1011.18 171.674 1011.18 171.674 1011.18 171.468C1011.18 171.468 1011.18 171.468 1011.18 171.262V171.056V170.85C1011.18 170.85 1011.18 170.85 1011.18 170.644C1011.18 170.644 1011.18 170.644 1011.18 170.438V170.232C1011.18 170.232 1011.18 170.232 1011.18 170.026V169.82V169.614V169.408V169.202C1011.18 168.996 1011.18 168.79 1011.18 168.584C1011.18 168.584 1011.18 168.584 1010.98 168.584C1010.98 168.584 1010.98 168.584 1010.98 168.79V168.996C1010.98 168.996 1010.98 168.996 1010.98 169.202C1010.98 169.202 1010.98 169.202 1010.98 169.408V169.614C1010.98 169.614 1010.98 169.614 1010.98 169.82C1010.98 169.82 1010.77 169.82 1010.77 170.026C1010.77 170.026 1010.77 170.026 1010.56 170.026C1010.56 170.026 1010.56 170.026 1010.36 170.026C1010.36 170.026 1010.36 170.026 1010.15 170.026C1010.15 170.026 1010.15 170.026 1009.95 170.026H1009.74H1009.53C1009.33 170.026 1009.33 170.026 1009.12 170.026H1008.92C1008.92 170.026 1008.92 170.026 1008.71 170.026C1008.71 170.026 1008.71 170.026 1008.5 170.026C1008.5 170.026 1008.5 170.026 1008.3 170.026H1008.09C1008.09 170.026 1008.09 170.026 1008.3 170.026H1008.5H1008.71H1008.92C1008.92 170.026 1008.92 170.026 1009.12 170.026H1009.33H1009.53H1009.74H1009.95C1009.95 170.026 1010.15 170.026 1010.15 170.232L1010.36 170.438C1010.36 170.438 1010.36 170.438 1010.36 170.644C1010.36 170.644 1010.36 170.644 1010.36 170.85C1010.36 170.85 1010.36 170.85 1010.36 171.056C1010.36 171.056 1010.36 171.056 1010.36 171.262V171.468C1010.36 171.468 1010.36 171.468 1010.36 171.674C1010.36 171.674 1010.36 171.674 1010.36 171.88C1010.36 171.88 1010.36 171.88 1010.36 171.674V171.468V171.262V171.056C1010.36 171.056 1010.36 171.056 1010.36 170.85V170.644C1010.36 170.644 1010.36 170.644 1010.36 170.438C1010.36 170.438 1010.36 170.438 1010.36 170.232C1010.36 170.232 1010.36 170.026 1010.56 170.026C1010.56 170.026 1010.56 170.026 1010.77 169.82C1010.77 169.82 1010.98 169.82 1010.98 169.614C1010.98 169.614 1011.18 169.614 1011.18 169.408C1011.18 169.408 1011.18 169.408 1011.39 169.408H1011.59C1011.59 169.408 1011.59 169.408 1011.8 169.408C1011.8 169.408 1011.8 169.408 1012.01 169.408H1012.21C1012.21 169.408 1012.21 169.408 1012.42 169.408H1012.62H1012.83C1012.83 169.408 1012.83 169.408 1013.04 169.408H1013.24C1012.62 172.91 1012.62 172.91 1012.83 172.704C1012.62 172.91 1012.62 172.704 1012.83 172.704ZM1010.98 172.086C1010.77 172.086 1010.77 172.086 1010.98 172.086ZM1008.92 168.584C1009.12 168.584 1009.12 168.584 1008.92 168.584ZM1011.18 172.292C1010.98 172.292 1010.77 172.292 1010.77 172.292C1010.77 172.292 1010.77 172.292 1010.56 172.292C1010.56 172.292 1010.56 172.292 1010.36 172.292C1010.36 172.292 1010.36 172.292 1010.36 172.498C1010.36 172.498 1010.36 172.498 1010.36 172.704C1010.36 172.704 1010.36 172.704 1010.36 172.91C1010.36 172.91 1010.36 172.91 1010.36 173.116V172.91V172.704C1010.36 172.704 1010.36 172.704 1010.36 172.498C1010.36 172.498 1010.36 172.498 1010.36 172.292V172.086C1010.36 172.086 1010.36 172.086 1010.36 171.88V171.674C1010.36 171.674 1010.36 171.674 1010.36 171.468C1010.36 171.468 1010.36 171.468 1010.36 171.262V171.056V170.85C1010.36 170.85 1010.36 170.644 1010.15 170.644C1010.15 170.644 1010.15 170.644 1010.15 170.438C1010.15 170.438 1010.15 170.438 1009.95 170.438C1009.95 170.438 1009.95 170.438 1009.74 170.438C1009.74 170.438 1009.74 170.438 1009.53 170.438H1009.33C1009.33 170.438 1009.33 170.438 1009.12 170.438C1009.12 170.438 1009.12 170.438 1008.92 170.438C1008.92 170.438 1008.92 170.438 1009.12 170.438H1009.33C1009.33 170.438 1009.33 170.438 1009.53 170.438C1009.53 170.438 1009.53 170.438 1009.74 170.438C1009.74 170.438 1009.74 170.438 1009.95 170.438C1009.95 170.438 1009.95 170.232 1010.15 170.232C1010.15 170.232 1010.15 170.232 1010.15 170.026C1010.15 170.026 1010.15 170.026 1010.15 169.82C1010.15 169.82 1010.15 169.82 1010.15 169.614C1010.15 169.614 1010.15 169.614 1010.15 169.408C1010.15 169.408 1010.15 169.408 1010.15 169.202C1010.15 169.202 1010.15 169.202 1010.15 168.996C1010.15 168.996 1010.15 168.996 1010.15 169.202C1010.15 169.202 1010.15 169.202 1010.15 169.408C1010.15 169.408 1010.15 169.408 1010.15 169.614V169.82C1010.15 169.82 1010.15 169.82 1010.15 170.026V170.232C1010.15 170.232 1010.15 170.232 1010.15 170.438C1010.15 170.438 1010.15 170.438 1010.15 170.644H1010.36C1010.36 170.644 1010.36 170.644 1010.56 170.644C1010.98 172.292 1011.18 172.292 1011.18 172.292Z" fill="#DD53FF"/>
<path d="M1046.18 107.103C1047.01 107.103 1047.62 106.897 1048.24 106.897C1049.07 106.691 1049.89 106.485 1050.71 106.691H1050.92C1051.74 106.691 1051.95 106.897 1051.74 107.721C1051.74 108.133 1051.33 108.545 1051.13 108.957C1050.71 109.369 1050.51 109.575 1050.1 109.987C1049.48 110.605 1049.07 111.017 1048.45 111.635C1048.24 111.841 1048.24 111.841 1048.45 112.047C1049.48 113.283 1050.51 114.725 1051.54 115.961C1051.74 116.167 1051.74 116.579 1051.74 116.991C1051.54 117.403 1051.33 117.815 1050.92 117.609C1050.3 117.609 1049.68 117.609 1049.07 117.403C1047.62 117.197 1046.18 116.785 1044.74 116.579C1044.53 116.579 1044.33 116.579 1044.12 116.373C1043.71 116.373 1043.5 116.373 1043.5 116.785C1043.3 117.197 1043.3 117.609 1043.09 118.227C1042.68 119.463 1042.47 120.493 1042.06 121.729C1041.86 122.141 1041.86 122.553 1041.65 122.965C1041.65 123.171 1041.44 123.377 1041.24 123.583C1041.03 123.789 1041.03 123.789 1040.62 123.789C1040.21 123.583 1039.8 123.377 1039.59 122.965C1038.97 122.141 1038.35 121.111 1037.53 120.287L1037.32 120.081C1036.09 120.905 1035.06 121.729 1033.82 122.553C1033.41 122.965 1033 123.171 1032.38 123.377C1031.56 123.789 1030.94 123.583 1030.73 122.759C1030.53 122.141 1030.53 121.523 1030.53 120.905C1030.53 119.875 1030.32 118.845 1030.32 117.815C1030.32 117.609 1030.11 117.403 1030.11 117.403C1029.5 116.991 1028.88 116.785 1028.05 116.373C1027.02 115.961 1026.2 115.549 1024.96 115.549H1024.76C1023.93 115.343 1023.73 114.519 1024.35 114.107C1024.55 113.901 1024.76 113.901 1024.96 113.695C1026.2 112.871 1027.44 111.841 1028.47 110.811L1028.67 110.605C1028.47 110.399 1028.47 110.193 1028.26 109.987C1027.64 109.163 1026.82 108.133 1026.2 107.309C1025.99 107.103 1025.79 106.897 1025.99 106.485C1026.2 106.279 1026.41 106.279 1026.82 106.279C1027.44 106.279 1028.26 106.485 1028.88 106.485C1029.7 106.691 1030.73 106.691 1031.56 106.897C1031.76 106.897 1032.17 106.897 1032.59 107.103C1032.59 106.897 1032.59 106.691 1032.59 106.485C1032.79 105.455 1032.79 104.425 1033 103.395C1033 102.777 1033 102.365 1033.2 101.747C1033.2 101.541 1033.2 101.335 1033.2 101.129C1033.2 100.717 1033.62 100.511 1034.03 100.717C1034.23 100.717 1034.23 100.923 1034.44 101.129C1035.68 102.159 1036.71 103.395 1037.74 104.631C1038.15 105.043 1038.56 105.661 1038.97 106.279C1038.97 106.279 1038.97 106.279 1039.18 106.279C1039.59 105.867 1040.21 105.455 1040.62 104.837C1041.24 104.219 1042.06 103.601 1042.68 102.983C1043.3 102.365 1043.92 101.747 1044.33 101.129C1044.53 100.923 1044.74 100.923 1044.74 100.717C1045.15 100.511 1045.36 100.511 1045.77 100.923C1046.18 101.335 1046.18 101.953 1046.18 102.571C1046.18 103.807 1046.18 105.043 1046.18 106.279C1046.18 106.279 1046.18 106.691 1046.18 107.103ZM1027.02 106.897C1027.64 107.721 1028.26 108.545 1028.88 109.163C1029.08 109.369 1029.29 109.575 1029.5 109.987C1029.7 110.193 1029.7 110.399 1029.7 110.811C1029.7 111.017 1029.5 111.017 1029.29 111.223C1029.29 111.223 1029.29 111.223 1029.08 111.429C1027.85 112.459 1026.61 113.489 1025.38 114.313L1025.17 114.519C1026.2 114.725 1027.23 115.137 1028.26 115.549C1028.88 115.755 1029.7 116.167 1030.32 116.579C1030.73 116.785 1030.94 117.197 1030.94 117.815C1030.94 119.051 1031.14 120.287 1031.14 121.523C1031.14 121.935 1031.14 122.141 1031.35 122.553C1031.76 122.347 1032.17 122.141 1032.59 121.935C1033.82 120.905 1035.47 120.081 1036.71 119.051C1036.71 119.051 1036.71 119.051 1036.91 119.051C1037.32 118.845 1037.74 118.845 1037.94 119.257C1037.94 119.463 1038.15 119.463 1038.15 119.669C1038.77 120.493 1039.38 121.523 1040.21 122.347C1040.21 122.553 1040.41 122.553 1040.62 122.759C1041.03 121.523 1041.44 120.287 1041.86 119.051C1042.06 118.227 1042.27 117.403 1042.47 116.785C1042.47 116.579 1042.68 116.167 1042.89 115.961C1043.09 115.755 1043.3 115.549 1043.5 115.549C1043.71 115.549 1043.92 115.549 1044.12 115.549C1045.56 115.755 1046.8 116.167 1048.24 116.373C1049.07 116.579 1049.68 116.579 1050.51 116.785C1050.71 116.785 1050.71 116.785 1050.92 116.785V116.579C1050.51 115.961 1049.89 115.343 1049.48 114.725C1048.86 113.901 1048.24 113.283 1047.83 112.459C1047.42 112.047 1047.42 111.841 1047.83 111.429C1048.45 110.605 1049.07 109.987 1049.89 109.369C1050.3 109.163 1050.51 108.751 1050.71 108.545C1050.71 108.545 1050.71 108.339 1050.92 108.133C1050.51 108.133 1050.1 108.133 1049.68 108.339C1048.65 108.545 1047.83 108.545 1046.8 108.751C1046.59 108.751 1046.39 108.751 1046.18 108.957C1045.98 108.957 1045.56 108.957 1045.36 108.751C1045.15 108.545 1045.15 108.339 1045.36 108.133L1045.56 107.927C1045.36 105.867 1045.56 104.013 1044.95 101.953L1044.74 102.159C1044.33 102.571 1043.92 102.983 1043.5 103.395C1042.27 105.043 1040.62 106.279 1038.97 107.515C1038.77 107.721 1038.56 107.721 1038.35 107.721C1038.15 107.721 1038.15 107.515 1038.15 107.309C1038.15 107.103 1038.15 106.897 1037.94 106.897C1036.71 105.867 1035.68 104.631 1034.44 103.395C1034.23 103.189 1033.82 102.777 1033.62 102.571C1033.41 103.601 1033.41 104.631 1033.2 105.661C1033 106.691 1032.79 107.721 1032.59 108.751C1032.38 108.751 1032.17 108.751 1032.17 108.545C1031.97 108.339 1031.56 108.339 1031.35 108.339C1031.14 108.339 1030.94 108.339 1030.94 108.339C1029.91 108.133 1028.88 108.133 1027.85 107.927C1027.64 107.103 1027.44 107.103 1027.02 106.897Z" fill="#DD53FF"/>
<path d="M1040.61 96.1545C1040.61 96.3605 1040.61 96.5665 1040.61 96.7725C1040.41 97.8025 1040.2 98.8325 1040 99.8625C1040 100.274 1039.58 100.48 1039.17 100.068C1038.97 99.8625 1038.97 99.8625 1038.97 99.4505C1038.97 98.8325 1039.17 98.4205 1039.17 97.8025C1039.17 97.1845 1039.38 96.7725 1039.58 96.1545C1039.58 95.9485 1039.79 95.5365 1039.79 95.3305L1040 95.1245C1040.2 94.9185 1040.41 94.9185 1040.41 95.1245C1040.41 95.7425 1040.61 95.9485 1040.61 96.1545Z" fill="#DD53FF"/>
<path d="M1035.06 123.604C1035.06 123.81 1035.06 123.81 1035.06 123.81C1034.86 124.222 1034.65 124.84 1034.44 125.252C1034.24 125.87 1034.03 126.282 1033.62 126.9C1033.62 127.106 1033.41 127.106 1033.41 127.312C1033.21 127.518 1033.21 127.518 1033 127.312C1032.8 127.312 1032.8 127.106 1032.8 126.9C1033 126.282 1033 125.664 1033.21 125.252C1033.41 124.634 1033.62 124.016 1033.83 123.398C1033.83 123.192 1034.03 122.986 1034.44 122.986C1034.65 122.986 1034.65 122.986 1034.86 123.192C1034.86 123.192 1035.06 123.398 1035.06 123.604Z" fill="#DD53FF"/>
<path d="M1052.36 101.119C1052.36 101.119 1052.36 101.325 1052.16 101.325C1051.95 101.531 1051.95 101.531 1051.74 101.737C1051.13 102.355 1050.51 103.179 1049.89 103.797C1049.68 104.003 1049.48 104.209 1049.27 104.415C1049.07 104.621 1048.65 104.621 1048.24 104.209C1048.04 104.003 1048.04 103.797 1048.24 103.591C1048.45 103.385 1048.86 102.973 1049.07 102.767C1049.89 102.149 1050.51 101.737 1051.33 101.119C1051.54 101.119 1051.54 100.913 1051.74 100.913C1052.16 100.707 1052.36 100.913 1052.36 101.119Z" fill="#DD53FF"/>
<path d="M1025.18 100.295C1025.39 100.501 1025.59 100.501 1025.8 100.707C1026.62 101.531 1027.65 102.149 1028.48 102.973C1028.89 103.179 1028.89 103.385 1028.68 103.591C1028.48 104.003 1028.06 104.003 1027.86 103.797C1027.65 103.591 1027.45 103.385 1027.03 103.179C1026.21 102.561 1025.59 101.737 1024.97 100.913C1025.18 100.707 1024.97 100.501 1025.18 100.295Z" fill="#DD53FF"/>
<path d="M1027.44 119.062C1027.44 119.268 1027.44 119.474 1027.23 119.474C1027.03 119.68 1026.82 119.68 1026.61 119.886C1025.58 120.504 1024.55 121.122 1023.32 121.74C1023.32 121.74 1023.11 121.74 1023.11 121.946H1022.91C1022.7 121.946 1022.91 121.74 1022.91 121.534C1022.91 121.328 1023.11 121.328 1023.11 121.328C1023.73 120.916 1024.14 120.504 1024.76 120.092C1025.38 119.68 1026.2 119.268 1026.82 118.856C1027.03 118.856 1027.03 118.65 1027.23 118.65C1027.44 118.65 1027.44 118.856 1027.44 119.062Z" fill="#DD53FF"/>
<path d="M1054.21 113.283C1053.18 113.283 1052.15 113.077 1051.33 112.871C1050.92 112.871 1050.71 112.459 1050.92 112.253C1050.92 112.047 1051.12 111.841 1051.33 112.047C1051.53 112.047 1051.95 112.047 1052.15 112.047C1053.18 112.253 1054.21 112.253 1055.04 112.665H1055.24L1055.45 112.871L1055.24 113.077C1055.04 113.283 1054.62 113.283 1054.21 113.283Z" fill="#DD53FF"/>
<path d="M1025.8 111.635C1025.59 112.047 1025.18 112.047 1024.77 112.047C1024.35 112.047 1023.74 112.047 1023.32 111.841C1022.71 111.841 1022.09 111.635 1021.68 111.429H1021.47L1021.26 111.223L1021.47 111.017C1022.29 111.017 1023.12 111.017 1024.15 111.017C1024.56 111.017 1024.77 111.017 1025.18 111.017C1025.18 111.223 1025.59 111.223 1025.8 111.635Z" fill="#DD53FF"/>
<path d="M1049.06 122.358C1049.06 122.358 1048.85 122.358 1048.85 122.152C1047.82 121.122 1047 120.298 1045.97 119.268C1045.97 119.268 1045.97 119.268 1045.76 119.062C1045.56 118.856 1045.76 118.65 1045.97 118.444C1046.18 118.238 1046.38 118.444 1046.59 118.65C1046.79 118.856 1047 119.268 1047.21 119.474C1047.62 119.886 1048.03 120.504 1048.44 120.916C1048.65 121.122 1048.85 121.534 1049.06 121.74C1049.06 121.946 1049.06 122.152 1049.06 122.358Z" fill="#DD53FF"/>
</svg>
