<svg width="1177" height="365" viewBox="0 0 1177 365" fill="none" xmlns="http://www.w3.org/2000/svg">
<path d="M367.702 112.626C367.702 112.435 367.51 112.052 367.126 112.052C367.126 112.052 367.126 112.052 366.934 112.052C366.55 112.052 364.054 111.86 362.326 110.136C360.79 108.604 360.022 106.689 360.022 103.433C360.022 103.05 360.022 102.859 360.022 102.476C360.022 102.093 359.83 101.71 359.254 101.71C359.062 101.71 358.678 101.901 358.678 102.284C358.678 102.476 358.678 102.667 358.678 102.859C358.678 104.199 358.294 107.455 356.374 109.179C355.414 110.136 354.07 110.711 352.534 110.711C352.342 110.711 351.958 110.903 351.958 111.286C351.958 111.477 352.15 111.86 352.342 111.86C352.534 111.86 358.486 112.435 358.486 119.521C358.486 119.712 358.678 119.904 358.87 120.096C359.062 120.096 359.446 119.904 359.446 119.712C359.446 119.521 360.598 112.626 366.166 112.435H366.358C367.51 113.201 367.702 113.009 367.702 112.626Z" fill="#DD53FF"/>
<path d="M383.848 132.342C383.848 131.959 383.464 131.959 383.272 131.959C383.272 131.959 383.272 131.959 383.08 131.959C382.696 131.959 380.2 132.342 378.088 131.002C376.36 129.852 375.016 127.746 374.632 124.873C374.632 124.49 374.44 124.298 374.44 123.915C374.44 123.532 374.056 123.532 373.864 123.532C373.672 123.532 373.48 123.915 373.48 124.107C373.48 124.298 373.48 124.49 373.672 124.681C373.864 126.022 374.056 129.278 372.712 131.768C372.136 132.917 370.792 133.683 369.256 134.066C369.064 134.066 368.872 134.449 368.872 134.64C368.872 134.832 369.256 135.215 369.448 135.023C369.64 135.023 375.784 134.449 377.32 141.727C377.32 141.918 377.512 142.11 377.896 142.11C378.088 142.11 378.472 141.918 378.28 141.535C378.28 141.344 378.088 134.066 383.656 132.725H383.848C383.656 133.108 383.848 132.725 383.848 132.342Z" fill="#DD53FF"/>
<path d="M225.91 194.188C225.718 193.805 225.718 193.039 225.91 192.656C226.294 191.506 226.87 190.357 227.446 189.4C227.638 188.825 227.83 188.059 228.406 187.484C228.982 185.952 229.75 184.42 230.71 183.08C231.862 180.781 233.206 178.675 233.974 176.376C234.358 175.036 235.126 173.695 235.51 172.354C235.894 171.205 236.662 170.056 237.046 169.099C237.046 168.907 237.238 168.907 237.238 168.907C238.582 167.566 239.926 166.417 241.27 165.46C241.462 165.268 241.654 165.077 241.654 164.502C241.846 163.544 241.846 162.587 242.038 161.629C242.23 160.672 242.23 160.672 243.19 161.055C243.382 161.055 243.766 161.246 244.15 161.246C244.534 161.438 244.534 161.438 244.342 161.821C244.342 162.012 244.15 162.012 244.15 162.204C243.766 162.778 243.574 163.353 242.998 163.928C242.806 164.119 242.806 164.502 242.614 164.885C242.422 166.417 242.422 167.758 242.614 169.29C242.614 169.673 242.614 169.865 242.614 170.439C242.614 170.631 242.614 170.822 242.422 171.014L242.23 171.205C241.27 173.695 240.502 176.185 239.542 178.675C238.966 180.59 238.006 182.505 237.046 184.229C236.47 185.569 235.702 187.101 235.126 188.634C234.55 189.974 233.974 191.506 233.398 193.039C233.014 193.996 232.438 194.571 231.862 195.528L232.054 195.72C232.246 196.103 232.246 196.677 231.862 196.869C231.67 197.06 231.67 197.252 231.478 197.444V197.635C231.094 198.21 230.518 198.976 230.134 199.359C230.326 200.508 230.134 201.657 229.75 202.615C229.366 203.189 228.214 204.147 226.87 203.955C225.91 203.764 225.142 203.572 224.182 203.381C223.798 203.381 223.222 202.806 223.222 202.04C223.222 201.657 223.222 201.082 223.414 200.891C223.798 199.933 224.374 199.359 224.758 198.593C224.95 198.401 224.95 198.21 224.758 198.018C224.566 197.635 224.758 196.869 224.758 196.486C224.758 196.294 224.95 196.294 224.95 196.103C225.142 195.911 225.142 195.72 225.142 195.528C225.334 195.145 225.526 194.762 225.91 194.188ZM237.238 169.865C237.238 170.056 237.046 170.248 237.046 170.248C236.854 171.205 236.47 171.971 236.086 172.737C235.51 174.653 234.742 176.951 233.59 178.866C232.63 180.59 231.862 182.122 230.902 183.846C230.518 184.995 229.75 185.761 229.366 186.91C228.79 188.442 228.022 189.783 227.446 191.315C227.254 191.698 227.062 192.272 227.062 192.656C226.87 193.039 227.062 193.23 227.446 193.613C227.83 193.805 228.406 193.805 228.79 193.996C228.79 193.996 228.79 193.996 228.79 193.805C229.366 192.081 230.326 190.357 231.286 188.251C232.246 186.527 233.014 184.42 233.974 182.696C234.934 180.973 235.51 178.866 236.47 177.142C237.43 175.227 238.198 173.12 239.158 171.205C239.35 171.014 239.35 170.631 239.542 170.056C238.582 170.822 238.006 170.439 237.238 169.865ZM240.31 170.631C240.118 171.014 240.118 171.205 240.118 171.588C239.158 173.887 238.39 175.993 237.43 178.292C237.046 179.441 236.47 180.207 236.086 181.356C235.126 183.08 234.55 184.803 233.59 186.91C232.438 189.208 231.67 191.315 230.518 193.613C230.326 193.996 230.134 194.571 230.134 194.954C230.518 195.145 231.094 194.954 231.478 194.762C231.67 194.571 232.054 194.571 232.438 194.379C233.59 191.889 234.358 189.783 235.51 187.293C235.894 186.144 236.662 184.995 237.046 183.846C237.43 182.696 238.198 181.547 238.582 180.398C239.734 177.525 240.886 174.844 241.654 171.971V171.78C241.27 171.397 240.886 171.205 240.31 170.631ZM224.758 202.04C225.334 202.232 225.91 202.232 226.486 202.423C226.87 202.423 227.446 202.615 227.83 202.615C228.406 202.615 229.174 202.232 229.174 201.465C229.174 201.082 229.174 200.891 229.366 200.316C229.366 200.125 229.366 200.125 229.366 199.933C227.83 200.125 226.486 200.125 225.526 198.784C224.95 199.55 224.374 201.274 224.758 202.04ZM242.038 165.651C241.078 166.034 240.502 166.8 239.734 167.375C239.158 167.949 238.39 168.716 237.814 169.099C238.198 169.673 238.966 169.673 239.35 169.482C239.542 169.29 239.734 169.29 239.926 169.099C239.926 168.907 240.118 168.907 240.31 168.907L240.502 169.099C240.502 169.29 240.502 169.482 240.502 169.673C240.694 170.056 240.886 170.248 241.462 170.056C241.654 170.056 241.654 170.056 241.846 169.865C242.038 168.907 242.038 167.375 242.038 165.651ZM226.294 195.337C226.486 195.528 226.486 195.528 226.486 195.528L226.678 195.72C228.022 196.103 229.174 196.294 230.518 196.294C230.902 196.294 231.094 196.294 231.478 195.911C231.478 195.72 231.286 195.72 231.286 195.528C230.71 195.72 229.942 195.72 229.366 195.528C228.406 195.337 227.638 195.145 226.678 194.954C226.678 195.145 226.486 195.337 226.294 195.337ZM228.598 199.359C228.022 199.167 227.254 199.167 226.87 198.784C226.486 198.401 225.718 198.21 225.334 197.635C225.334 198.976 227.254 199.742 228.598 199.359ZM230.326 198.018C228.982 198.401 227.638 198.018 226.294 197.444C227.83 198.593 229.75 198.593 230.326 198.018ZM243.19 161.629C242.998 161.629 242.998 161.629 242.806 161.629C242.806 161.821 242.806 161.821 242.806 162.012C243.19 161.629 243.19 161.629 243.19 161.629Z" fill="#DD53FF"/>
<path d="M308.921 277.833C308.345 277.641 307.577 277.45 307.193 277.258C306.041 276.875 306.041 275.918 306.617 274.96C306.809 274.577 307.193 274.003 307.193 273.62C307.193 272.47 306.809 271.321 305.849 270.555C305.273 269.981 304.505 269.406 303.929 269.023C302.969 268.448 302.009 267.874 301.049 267.299C299.705 266.342 298.553 265.576 297.593 264.427C295.865 262.511 294.905 260.022 295.097 257.34C295.097 255.425 295.481 253.318 296.441 251.403C297.785 247.956 300.281 245.466 303.545 244.125C305.465 243.168 307.769 242.593 309.881 242.402C314.297 241.827 318.329 242.976 321.209 246.615C323.705 249.296 325.049 252.552 325.241 256C325.241 257.34 325.049 258.489 324.665 259.83C324.281 260.979 323.513 262.128 322.937 262.894C322.745 263.086 322.745 263.086 322.553 263.277C321.209 264.618 320.633 266.342 320.249 268.065C320.249 268.448 320.057 269.023 319.865 269.598C319.865 269.789 319.865 270.172 319.865 270.172C320.249 270.555 320.825 270.747 321.209 271.321C321.593 271.896 321.593 272.662 321.209 273.236C320.825 273.62 320.633 274.194 320.057 274.577C320.249 275.152 320.249 275.918 319.865 276.492C319.673 276.684 319.673 276.875 319.481 277.45C319.289 277.641 319.481 277.833 319.481 278.024C319.865 278.599 319.673 279.174 319.481 279.748C318.905 281.089 317.945 282.238 316.409 282.621C315.257 283.004 313.913 283.196 312.953 283.196C312.569 283.196 312.377 283.196 311.801 283.004C311.225 282.812 310.457 282.046 310.649 281.28C310.649 280.897 310.457 280.706 310.073 280.323C309.497 280.131 309.497 279.365 309.497 278.791C308.921 278.599 308.921 278.216 308.921 277.833ZM309.881 260.405C309.689 260.213 309.497 260.022 309.497 259.83C308.345 258.489 307.769 257.149 307.577 255.425C307.577 255.234 307.577 254.851 307.577 254.468C307.769 253.893 308.537 253.318 309.113 253.51C309.305 253.51 309.497 253.701 309.689 253.893C310.073 254.276 310.265 254.851 310.649 255.234C311.225 256.383 311.801 257.723 311.993 259.064C311.993 259.256 311.993 259.639 312.377 259.639C312.761 259.639 313.337 259.83 313.721 259.639C313.721 259.447 313.721 259.447 313.721 259.447C313.913 258.106 314.105 256.574 314.681 255.234C314.873 254.659 315.257 253.893 316.217 253.701C316.793 253.51 317.369 253.701 317.753 254.084C317.945 254.468 318.137 255.234 318.137 255.617C318.137 256.574 317.945 257.34 317.753 258.106C317.369 259.256 316.601 260.405 315.449 260.788C315.065 260.979 315.065 261.171 315.065 261.362C315.065 262.32 315.257 263.277 315.257 264.235C315.449 265.767 315.641 267.299 315.833 268.64C315.833 269.215 316.025 269.789 316.025 270.364C316.601 270.172 317.369 270.172 317.945 270.172C319.097 270.172 319.097 269.789 318.905 268.832C318.905 268.64 318.713 268.448 318.713 268.257C318.713 267.874 318.521 267.299 318.713 266.916C318.905 264.618 319.673 262.703 321.017 261.171C321.401 260.788 321.977 260.022 322.169 259.639C323.513 257.915 323.897 255.808 323.513 253.701C323.321 252.744 323.129 251.786 322.553 250.829C321.401 248.147 319.673 246.041 317.177 244.7C315.257 243.551 313.145 243.359 311.033 243.551C309.305 243.742 307.769 244.125 306.233 244.892C302.393 246.232 299.897 248.722 298.553 252.361C298.169 253.701 297.593 255.234 297.401 256.766C297.209 259.064 297.785 260.979 299.321 262.703C300.473 264.044 302.009 265.001 303.545 265.767C304.697 266.342 305.849 267.108 306.809 268.065C307.961 269.023 308.729 270.364 309.305 271.513C309.305 271.704 309.497 271.896 309.497 272.087C310.073 271.896 310.841 271.704 311.417 271.513C311.609 270.555 311.417 269.789 311.225 268.832C310.649 267.108 309.689 265.384 308.729 263.469C308.537 263.086 308.153 262.32 307.385 262.32C307.193 262.32 307.001 262.128 306.809 262.128C305.081 261.171 303.545 259.83 302.393 258.106C302.201 257.723 302.009 257.149 302.009 256.574C302.009 255.617 302.393 255.425 303.161 255.425C303.737 255.425 304.505 255.617 305.081 256C306.425 256.957 307.385 258.298 308.153 259.447C308.345 259.83 308.537 260.022 308.729 260.596C309.113 261.171 309.497 260.979 309.881 260.405ZM311.417 261.171C311.033 262.128 310.265 262.703 309.497 263.086C309.689 263.277 309.689 263.469 309.689 263.66C311.033 266.15 312.377 268.448 312.569 271.321C313.145 271.13 313.913 270.938 314.873 270.747C314.297 267.682 313.529 264.618 313.337 261.554C312.377 261.362 311.993 261.171 311.417 261.171ZM319.673 271.704C319.289 271.321 318.521 271.13 318.137 271.321C316.985 271.704 315.833 272.279 314.873 272.662C313.529 273.236 311.993 273.811 310.649 274.386C309.689 274.577 309.113 274.769 307.961 274.96C307.961 274.96 307.769 275.152 307.769 275.343C308.921 275.918 310.073 275.726 311.033 275.726C313.913 275.343 316.601 274.194 318.905 272.47C319.481 272.279 319.481 272.087 319.673 271.704ZM318.329 275.152C315.641 276.875 312.953 277.833 309.881 277.833C309.689 279.174 310.073 279.557 311.417 279.365C311.417 279.365 311.417 279.365 311.609 279.365C313.145 278.791 314.873 278.216 316.409 277.641C317.561 277.258 318.137 276.492 318.329 275.152ZM311.609 280.897C311.609 281.472 311.609 281.855 312.185 281.855C312.761 281.855 313.529 281.855 314.489 281.663C316.025 281.472 317.177 280.514 318.329 279.365C318.521 279.174 318.713 278.791 318.521 278.216C316.217 279.557 313.913 280.131 311.609 280.897ZM306.041 260.788C305.081 259.639 304.505 258.489 303.161 257.915C303.545 258.872 304.697 260.022 306.041 260.788ZM316.025 255.617C315.449 256.191 314.873 257.915 315.065 258.489C315.833 257.723 316.025 256.766 316.025 255.617Z" fill="#DD53FF"/>
<path d="M314.488 226.131C315.064 226.706 315.448 227.663 315.064 228.621C314.488 231.111 313.72 233.409 313.144 235.899C312.952 236.856 312.76 236.856 311.8 236.856C311.224 236.665 310.648 236.282 310.84 235.516C311.416 233.026 312.184 230.536 312.76 228.046C313.144 227.089 313.72 226.323 314.488 226.131Z" fill="#DD53FF"/>
<path d="M298.726 226.125C299.302 226.316 299.686 226.699 299.686 227.274C300.262 228.998 300.838 230.721 301.222 232.253C301.606 233.594 301.798 234.935 302.374 236.275C302.374 236.467 302.374 236.85 302.566 237.233C302.374 237.233 302.182 237.424 301.99 237.424C301.414 237.616 300.838 237.424 300.646 236.85C300.07 234.36 298.918 231.87 298.726 229.189C298.726 228.231 298.726 227.657 298.534 226.699C298.534 226.699 298.726 226.316 298.726 226.125Z" fill="#DD53FF"/>
<path d="M323.128 231.105C323.128 231.488 323.128 232.063 322.936 232.254C322.552 233.595 321.976 234.936 321.208 236.085C320.632 236.659 320.056 237.617 319.48 238.574C319.288 238.766 319.096 238.958 318.52 238.958C317.56 238.958 316.984 238.383 317.368 237.425C317.368 237.234 317.56 237.234 317.56 237.042C318.52 235.893 319.096 234.744 320.056 233.786C320.632 232.829 321.592 232.254 322.36 231.488C322.552 231.297 322.744 231.297 323.128 231.105Z" fill="#DD53FF"/>
<path d="M297.188 242.401C296.804 242.401 296.612 242.593 296.612 242.593C296.036 242.401 295.076 242.401 294.308 242.21C292.58 241.827 290.852 241.061 288.932 240.486C288.74 240.486 288.74 240.486 288.548 240.295C288.164 240.103 287.972 239.72 287.972 239.145C288.164 238.762 288.548 238.188 289.124 238.571C291.044 239.145 293.156 239.72 295.076 240.486C295.844 240.869 296.612 241.635 297.188 242.401Z" fill="#DD53FF"/>
<path d="M928.434 187.864C928.242 187.481 928.05 187.289 927.858 186.715C927.666 186.14 927.858 185.566 928.242 185.374C928.434 185.374 928.818 185.183 929.202 184.991C929.586 184.416 929.778 183.65 929.778 183.076C929.778 182.693 929.586 181.927 929.586 181.544C929.394 180.969 929.202 180.203 929.01 179.628C928.626 178.671 928.434 177.905 928.434 176.756C928.242 175.032 928.818 173.691 929.97 172.351C930.93 171.393 931.698 170.627 932.85 169.861C934.77 168.712 937.074 168.329 939.186 168.903C940.53 169.286 941.874 169.861 943.026 170.436C945.522 171.968 946.866 173.883 947.058 176.756C947.058 179.054 946.674 181.161 945.33 182.884C944.946 183.459 944.178 184.033 943.602 184.416C943.026 184.8 942.258 184.991 941.298 185.374C941.106 185.374 941.106 185.374 940.914 185.374C939.762 185.566 938.61 185.949 938.034 186.906C937.842 187.098 937.65 187.289 937.458 187.481C937.266 187.672 937.266 187.672 937.074 187.672C937.074 188.055 937.266 188.247 937.266 188.821C937.266 189.396 937.074 189.779 936.306 189.779C935.922 189.779 935.73 189.779 935.154 189.971C934.962 190.354 934.77 190.545 934.194 190.928C934.002 190.928 934.002 191.12 933.81 191.12C933.618 191.12 933.618 191.311 933.618 191.503C933.618 191.886 933.234 192.077 933.042 192.46C932.082 192.843 931.314 192.843 930.354 192.652C929.778 192.46 929.01 192.077 928.434 191.503C928.242 191.311 928.05 191.311 928.05 191.12C927.858 190.737 927.858 190.162 928.05 189.779C928.242 189.588 928.242 189.396 928.05 189.204C927.858 188.821 928.05 188.63 928.242 188.055C928.242 188.247 928.242 188.055 928.434 187.864ZM935.73 179.437C935.73 179.245 935.73 179.054 935.73 179.054C935.73 177.905 935.922 177.139 936.306 176.181C936.306 175.99 936.498 175.798 936.69 175.798C937.074 175.607 937.65 175.607 937.842 175.99C937.842 176.181 937.842 176.181 937.842 176.373C937.842 176.564 937.842 176.947 937.842 177.33C937.65 178.288 937.458 178.862 936.882 179.82C936.882 180.012 936.69 180.012 936.882 180.203C937.074 180.395 937.074 180.586 937.458 180.586C937.458 180.586 937.458 180.586 937.65 180.395C938.226 179.82 938.994 179.054 939.57 178.671C939.954 178.479 940.53 178.479 940.914 178.479C941.298 178.671 941.49 178.862 941.298 179.437C941.298 179.82 941.106 180.012 940.914 180.395C940.53 180.778 940.338 180.969 939.762 181.544C939.186 181.927 938.418 182.118 937.458 181.927C937.266 181.927 937.074 181.927 937.074 182.118C936.882 182.501 936.498 183.076 936.114 183.65C935.73 184.608 935.154 185.183 934.578 186.14C934.386 186.332 934.194 186.715 934.002 187.098C934.386 187.289 934.578 187.481 935.154 187.672C935.73 188.055 935.73 187.864 936.114 187.481C936.114 187.289 936.114 187.289 936.306 187.098C936.498 186.906 936.498 186.715 936.69 186.523C937.65 185.566 938.61 184.8 939.954 184.608C940.338 184.608 940.914 184.416 941.106 184.416C942.45 184.033 943.602 183.267 943.986 181.927C944.178 181.352 944.37 180.778 944.562 180.203C944.946 178.479 944.946 176.756 944.37 175.224C943.986 173.883 943.026 172.925 941.682 172.351C940.722 171.776 939.762 171.393 938.802 171.01C936.306 170.052 934.194 170.436 931.89 171.585C930.93 171.968 930.354 172.734 929.586 173.308C928.434 174.457 928.05 175.607 928.242 177.139C928.434 178.288 928.626 179.054 929.202 180.203C929.394 180.778 929.586 181.735 929.778 182.693C929.97 183.65 929.97 184.416 929.586 185.374C929.586 185.566 929.586 185.566 929.394 185.757C929.778 185.949 930.354 186.14 930.546 186.14C930.93 185.757 931.122 185.183 931.506 184.8C931.89 183.65 932.082 182.31 932.466 181.352C932.466 180.969 932.658 180.778 932.274 180.395C932.274 180.395 932.082 180.203 932.082 180.012C931.698 178.862 931.506 177.522 931.506 176.181C931.506 175.798 931.698 175.607 931.89 175.224C932.082 174.841 932.466 174.841 933.042 175.032C933.618 175.224 933.618 175.607 933.618 176.181C933.81 177.139 933.81 178.096 933.81 179.245C933.81 179.437 933.81 179.628 933.81 180.203C935.154 180.012 935.538 179.82 935.73 179.437ZM936.114 180.586C935.538 180.778 934.962 180.969 934.386 180.778C934.386 180.969 934.386 180.969 934.386 181.161C934.002 182.884 933.81 184.416 932.85 185.949C933.234 186.14 933.81 186.332 934.194 186.332C935.154 184.608 935.922 182.884 937.074 180.969C936.69 181.352 936.498 180.969 936.114 180.586ZM936.114 189.204C936.114 188.821 935.922 188.63 935.538 188.247C934.962 188.055 934.194 187.864 933.234 187.672C932.274 187.481 931.506 187.289 930.546 186.715C930.162 186.523 929.586 186.332 929.01 186.14C929.01 186.14 928.818 186.14 928.626 186.332C928.818 186.906 929.586 187.481 930.162 187.864C931.698 188.821 933.426 189.205 935.538 189.396C935.73 189.205 935.922 189.204 936.114 189.204ZM934.194 190.354C932.274 190.162 930.354 189.396 929.202 188.438C928.626 189.013 928.626 189.588 929.202 189.779C930.354 190.162 931.122 190.354 932.274 190.928C932.85 190.928 933.618 190.737 934.194 190.354ZM928.626 190.545C928.434 190.928 928.434 190.928 928.626 191.12C929.01 191.311 929.202 191.503 929.778 191.694C930.738 192.077 931.506 192.077 932.466 192.077C932.658 192.077 932.85 191.886 932.85 191.694C931.314 191.694 929.97 190.928 928.626 190.545ZM933.81 178.479C933.81 177.522 934.002 176.756 933.618 175.798C933.234 176.373 933.234 177.522 933.81 178.479ZM940.53 179.82C940.146 179.82 939.186 180.395 938.994 180.969C939.762 180.586 940.146 180.203 940.53 179.82Z" fill="#DD53FF"/>
<path d="M951.476 164.696C951.476 165.27 951.284 165.845 950.9 166.036C949.556 166.994 948.404 167.951 947.06 168.909C946.676 169.101 946.484 169.101 946.1 168.909C945.908 168.718 945.908 168.335 946.292 167.76C947.636 166.611 948.98 165.845 950.324 164.887C950.516 164.504 951.092 164.504 951.476 164.696Z" fill="#DD53FF"/>
<path d="M943.99 158.567C944.182 158.95 943.99 159.142 943.99 159.525C943.606 160.674 943.03 161.823 942.646 162.589C942.454 163.547 942.07 164.121 941.494 165.079C941.494 165.27 941.302 165.462 941.302 165.462C941.11 165.462 941.11 165.462 940.918 165.27C940.534 165.079 940.534 164.887 940.534 164.313C941.11 162.781 941.686 161.248 942.454 159.908C942.646 159.525 943.03 158.95 943.414 158.759C943.414 158.759 943.798 158.567 943.99 158.567Z" fill="#DD53FF"/>
<path d="M953.776 170.425C953.584 170.617 953.392 170.808 953.392 170.808C952.816 171.191 951.856 171.766 950.896 171.957C950.32 172.149 949.744 172.149 949.168 172.34C948.976 172.34 948.784 172.34 948.592 172.34C948.208 171.957 948.208 171.383 948.592 171C948.592 171 948.784 171 948.784 170.808C949.744 170.617 950.512 170.425 951.28 170.234C951.856 170.042 952.624 170.042 953.2 170.042C953.584 170.425 953.584 170.425 953.776 170.425Z" fill="#DD53FF"/>
<path d="M936.686 166.025C936.494 166.025 936.302 166.025 936.302 165.833C936.11 165.45 935.726 165.259 935.342 164.684C934.766 163.727 933.998 162.769 933.422 161.811L933.23 161.62C933.038 161.428 933.23 161.045 933.422 161.045C933.614 160.854 933.998 160.854 934.382 161.237C934.958 162.386 935.918 163.535 936.686 164.493C936.686 164.684 936.686 165.259 936.686 166.025Z" fill="#DD53FF"/>
<path d="M874.414 235.141C874.414 234.949 874.222 234.758 874.222 234.183C874.03 233.8 873.838 233.609 873.646 233.034C873.454 232.651 873.07 231.885 872.686 231.502C867.694 221.16 862.51 210.818 857.518 200.476C855.79 197.028 854.062 193.39 852.526 189.751L850.798 185.92C850.222 184.388 849.454 183.047 848.878 181.515C848.494 180.558 847.918 179.983 847.342 179.792C846.382 179.6 845.806 179.983 845.038 180.366C844.846 180.366 844.846 180.558 844.654 180.558C843.694 181.132 843.502 182.281 844.078 183.239C844.27 183.622 844.462 184.197 844.654 184.771L847.15 189.559C848.686 192.815 850.222 196.262 851.758 199.327C853.678 203.349 855.79 207.179 857.71 211.392C860.206 216.372 862.702 221.543 865.198 226.523C865.582 227.48 866.158 228.246 866.542 229.204C867.886 231.694 869.038 233.992 869.806 236.673C869.998 237.248 870.382 237.822 870.958 238.014H871.15C871.534 238.014 872.11 238.014 872.494 237.822C873.07 237.631 873.646 237.248 874.222 236.673C874.414 236.482 874.606 236.29 874.606 236.099L874.99 235.524L874.414 235.141ZM853.486 199.518L853.294 199.135L853.678 198.944L853.87 199.327L853.486 199.518Z" fill="#DD53FF"/>
<path d="M863.094 174.067C863.094 173.875 863.094 173.684 862.902 173.684C862.71 173.684 861.558 173.301 860.598 172.152C860.022 171.194 860.022 169.853 860.406 168.704C860.406 168.513 860.406 168.321 860.406 168.321C860.406 168.13 860.406 168.13 860.214 167.938C860.022 167.938 860.022 167.938 859.83 168.13C859.83 168.321 859.83 168.321 859.83 168.513C859.638 169.087 859.254 170.811 857.91 171.386C857.334 171.769 856.566 171.769 855.99 171.577C855.798 171.577 855.798 171.577 855.606 171.769C855.606 171.96 855.606 171.96 855.798 172.152C855.99 172.152 858.87 173.301 858.102 176.748C858.102 176.94 858.102 176.94 858.294 177.131C858.486 177.131 858.486 177.131 858.678 176.94C858.678 176.748 860.214 173.492 862.902 174.067C862.71 174.258 863.094 174.258 863.094 174.067Z" fill="#DD53FF"/>
<path d="M812.55 185.366C812.55 185.175 812.55 185.175 812.358 185.175C812.166 185.175 811.206 184.983 810.63 184.026C810.246 183.451 810.246 182.302 810.438 181.153C810.438 180.962 810.438 180.962 810.438 180.962C810.438 180.77 810.438 180.77 810.246 180.77C810.054 180.77 810.054 180.77 810.054 180.962V181.153C809.862 181.536 809.478 182.877 808.518 183.643C808.134 183.834 807.366 184.026 806.982 183.834C806.79 183.834 806.79 183.834 806.79 184.026C806.79 184.217 806.79 184.217 806.982 184.217C806.982 184.217 809.478 185.175 808.71 188.048C808.71 188.239 808.71 188.239 808.902 188.239C809.094 188.239 809.094 188.239 809.094 188.048C809.094 187.856 810.246 185.366 812.358 185.75C812.55 185.75 812.55 185.75 812.55 185.366Z" fill="#DD53FF"/>
<path d="M874.232 189.006C874.232 188.814 874.04 188.814 874.232 189.006C874.04 188.814 874.04 188.814 874.232 189.006C874.04 188.814 874.04 188.814 874.04 188.814C874.04 188.814 874.04 188.814 873.848 188.814C873.848 188.814 873.848 188.814 873.656 188.814C873.656 188.814 873.656 188.814 873.464 188.814C873.464 188.814 873.464 188.814 873.272 188.814C873.272 188.814 873.272 188.814 873.08 188.814C873.08 188.814 873.08 188.814 872.888 188.814C872.888 188.814 872.888 188.814 872.696 188.814C872.696 188.814 872.696 188.814 872.696 188.622C872.696 188.622 872.696 188.622 872.696 188.431C872.696 188.431 872.696 188.431 872.696 188.239C872.696 188.239 872.696 188.239 872.696 188.048C872.696 188.048 872.696 188.048 872.696 187.856C872.696 187.856 872.696 187.856 872.696 187.665C872.696 187.665 872.696 187.665 872.696 187.473V187.282V187.09C872.696 187.09 872.696 187.09 872.696 186.899C872.696 186.899 872.696 186.899 872.696 186.707V186.516C872.696 186.516 872.696 186.516 872.696 186.324V186.133V185.941V185.75V185.558C872.696 185.367 872.696 185.175 872.696 184.984C872.696 184.984 872.696 184.984 872.504 184.984C872.504 184.984 872.504 184.984 872.504 185.175V185.367C872.504 185.367 872.504 185.367 872.504 185.558V185.75V185.941C872.504 185.941 872.504 185.941 872.504 186.133C872.504 186.133 872.312 186.133 872.312 186.324C872.312 186.324 872.312 186.324 872.12 186.324C872.12 186.324 872.12 186.324 871.928 186.324C871.928 186.324 871.928 186.324 871.736 186.324C871.736 186.324 871.736 186.324 871.544 186.324H870.968H870.776C870.584 186.324 870.584 186.324 870.392 186.324H870.2C870.2 186.324 870.2 186.324 870.008 186.324C870.008 186.324 870.008 186.324 869.816 186.324C869.816 186.324 869.816 186.324 869.624 186.324H869.432C869.432 186.324 869.432 186.324 869.624 186.324H869.816H870.008H870.2C870.2 186.324 870.2 186.324 870.392 186.324H870.584H870.776H870.968H871.16C871.16 186.324 871.352 186.324 871.352 186.516L871.544 186.707C871.544 186.707 871.544 186.707 871.544 186.899C871.544 186.899 871.544 186.899 871.544 187.09C871.544 187.09 871.544 187.09 871.544 187.282C871.544 187.282 871.544 187.282 871.544 187.473V187.665C871.544 187.665 871.544 187.665 871.544 187.856C871.544 187.856 871.544 187.856 871.544 188.048V187.856V187.665V187.473V187.282C871.544 187.282 871.544 187.282 871.544 187.09V186.899C871.544 186.899 871.544 186.899 871.544 186.707C871.544 186.707 871.544 186.707 871.544 186.516C871.544 186.516 871.544 186.324 871.736 186.324C871.736 186.324 871.736 186.324 871.928 186.133C871.928 186.133 872.12 186.133 872.12 185.941C872.12 185.941 872.312 185.941 872.312 185.75H872.504H872.696H872.888C872.888 185.75 872.888 185.75 873.08 185.75H873.272C873.272 185.75 873.272 185.75 873.464 185.75H873.656H873.848C873.848 185.75 873.848 185.75 874.04 185.75H874.232C873.848 189.197 874.04 189.197 874.232 189.006C874.04 189.197 874.04 189.197 874.232 189.006ZM872.312 188.622C872.12 188.622 872.12 188.239 872.312 188.622C872.12 188.239 872.12 188.239 872.312 188.622C872.312 188.239 872.12 188.239 872.312 188.622ZM870.008 184.984C869.816 184.984 869.816 184.984 870.008 184.984ZM869.816 184.984C870.008 184.984 870.008 184.984 869.816 184.984ZM871.352 189.197C871.352 189.005 871.352 189.005 871.352 189.197ZM872.504 188.814C872.312 188.814 872.312 188.814 872.504 188.814C872.312 188.814 872.12 188.814 872.12 188.814C872.12 188.814 872.12 188.814 871.928 188.814C871.928 188.814 871.928 188.814 871.736 188.814C871.736 188.814 871.736 188.814 871.736 189.006V189.197C871.736 189.197 871.736 189.197 871.736 189.389C871.736 189.389 871.736 189.389 871.736 189.58V189.389V189.197V189.006C871.736 189.006 871.736 189.006 871.736 188.814V188.622C871.736 188.622 871.736 188.622 871.736 188.431V188.239C871.736 188.239 871.736 188.239 871.736 188.048C871.736 188.048 871.736 188.048 871.736 187.856V187.665V187.473C871.736 187.473 871.736 187.282 871.544 187.282C871.544 187.282 871.544 187.282 871.544 187.09C871.544 187.09 871.544 187.09 871.352 187.09C871.352 187.09 871.352 187.09 871.16 187.09C871.16 187.09 871.16 187.09 870.968 187.09H870.776C870.776 187.09 870.776 187.09 870.584 187.09C870.584 187.09 870.584 187.09 870.392 187.09C870.392 187.09 870.392 187.09 870.584 187.09H870.776C870.776 187.09 870.776 187.09 870.968 187.09C870.968 187.09 870.968 187.09 871.16 187.09C871.16 187.09 871.16 187.09 871.352 187.09C871.352 187.09 871.352 186.899 871.544 186.899C871.544 186.899 871.544 186.899 871.544 186.707C871.544 186.707 871.544 186.707 871.544 186.516C871.544 186.516 871.544 186.516 871.544 186.324C871.544 186.324 871.544 186.324 871.544 186.133C871.544 186.133 871.544 186.133 871.544 185.941C871.544 185.941 871.544 185.941 871.544 185.75C871.544 185.75 871.544 185.75 871.544 185.558C871.544 185.558 871.544 185.558 871.544 185.75C871.544 185.75 871.544 185.75 871.544 185.941C871.544 185.941 871.544 185.941 871.544 186.133V186.324C871.544 186.324 871.544 186.324 871.544 186.516V186.707C871.544 186.707 871.544 186.707 871.544 186.899C871.544 186.899 871.544 186.899 871.544 187.09H871.736C871.736 187.09 871.736 187.09 871.928 187.09C872.312 188.622 872.312 188.622 872.504 188.814Z" fill="#DD53FF"/>
<path d="M839.639 206.234C839.831 206.234 839.831 206.234 839.639 206.234C839.639 206.043 839.639 206.043 839.639 206.043C839.639 206.043 839.639 206.043 839.447 206.043H839.255H839.063C839.063 206.043 839.063 206.043 838.871 206.043C838.871 206.043 838.871 206.043 838.679 206.043C838.679 206.043 838.679 206.043 838.487 206.043C838.487 206.043 838.295 206.043 838.295 205.851H838.103C838.103 205.851 837.911 205.851 837.911 205.66H837.719H837.527C837.527 205.66 837.527 205.66 837.335 205.66H837.143H836.375H836.183C836.183 205.66 835.991 205.66 835.991 205.468C835.991 205.468 835.991 205.468 835.799 205.468H835.607C835.607 205.468 835.415 205.468 835.415 205.277C835.415 205.277 835.415 205.277 835.223 205.277C835.223 205.277 835.031 205.277 835.031 205.085L834.839 204.894C834.839 204.894 834.839 204.894 834.647 204.702C834.647 204.702 834.647 204.702 834.647 204.511C834.647 204.511 834.647 204.319 834.455 204.319C834.455 204.319 834.455 204.319 834.455 204.128C834.455 204.128 834.455 204.128 834.455 203.936C834.455 203.936 834.455 203.936 834.455 203.745C834.455 203.745 834.263 203.553 834.455 203.553V203.362V203.17V202.978V202.787V202.595C834.455 202.404 834.455 202.212 834.455 202.212C834.455 202.021 834.455 202.021 834.455 201.829V201.638V201.446V201.255C834.455 201.063 834.455 200.872 834.455 200.872V200.68C834.455 200.489 834.455 200.489 834.455 200.297C834.455 200.106 834.455 200.106 834.455 199.914C834.455 199.723 834.455 199.723 834.455 199.531C834.455 199.34 834.455 199.34 834.455 199.148C834.455 198.765 834.455 198.574 834.455 197.999C834.455 197.999 834.455 197.999 834.455 197.807H834.263C834.263 197.807 834.263 197.807 834.071 197.807C834.071 197.807 834.071 197.807 834.071 197.999C834.071 197.999 834.071 197.999 834.071 198.19C834.071 198.19 834.071 198.19 834.071 198.382C834.071 198.382 834.071 198.382 834.071 198.574V198.765V198.957V199.148C834.071 199.34 834.071 199.34 834.071 199.531V199.723V199.914V200.106C834.071 200.106 834.071 200.106 834.071 200.297C834.071 200.297 834.071 200.297 834.071 200.489C834.071 200.489 834.071 200.489 834.071 200.68C834.071 200.68 834.071 200.68 834.071 200.872C834.071 200.872 834.071 200.872 834.071 201.063C834.071 201.063 834.071 201.063 834.071 201.255C834.071 201.255 834.071 201.446 833.879 201.446C833.879 201.446 833.879 201.446 833.879 201.638C833.879 201.638 833.879 201.638 833.879 201.829V202.021C833.879 202.021 833.879 202.021 833.879 202.212V202.404V202.595C833.879 202.595 833.879 202.595 833.879 202.787C833.879 202.787 833.879 202.787 833.879 202.978H833.687C833.687 202.978 833.687 202.978 833.687 203.17L833.495 203.362C833.495 203.362 833.495 203.362 833.303 203.553C833.303 203.553 833.303 203.553 833.111 203.745C833.111 203.745 833.111 203.745 832.919 203.936C832.727 203.936 832.727 204.128 832.535 204.128H832.343H832.151C832.151 204.128 832.151 204.128 831.959 204.128C831.959 204.128 831.959 204.128 831.767 204.128H831.575H831.383C831.383 204.128 831.383 204.128 831.191 204.128H830.999C830.807 204.128 830.807 204.128 830.615 204.128C830.423 204.128 830.423 204.128 830.231 204.128C830.039 204.128 829.847 204.128 829.655 204.128C829.463 204.128 829.463 204.128 829.271 204.128H829.079H828.887H828.695H828.503H828.311C828.311 204.128 828.311 204.128 828.119 204.128C828.119 204.128 828.119 204.128 827.927 204.128H827.735C827.735 204.128 827.735 204.128 827.543 204.128H827.351C827.159 204.128 827.159 204.128 826.967 204.128C826.967 204.128 826.967 204.128 826.967 204.319C826.967 204.319 826.967 204.511 827.159 204.511C827.159 204.511 827.159 204.511 827.351 204.511H827.543C827.543 204.511 827.735 204.511 827.735 204.702C827.927 204.702 827.927 204.894 828.119 204.894C828.119 204.894 828.311 204.894 828.311 205.085H828.503C828.503 205.085 828.503 205.085 828.695 205.085C828.887 205.085 829.079 205.277 829.079 205.277H829.271C829.271 205.277 829.271 205.277 829.463 205.277H829.655C829.655 205.277 829.847 205.277 829.847 205.468C830.039 205.468 830.039 205.468 830.231 205.66C830.231 205.66 830.231 205.66 830.423 205.66C830.423 205.66 830.423 205.66 830.615 205.66C830.807 205.66 830.807 205.851 830.999 205.851C831.191 205.851 831.191 206.043 831.383 206.043C831.383 206.043 831.383 206.043 831.383 206.234C831.383 206.234 831.383 206.234 831.383 206.426V206.617C831.383 206.617 831.383 206.617 831.383 206.809C831.383 206.809 831.383 206.809 831.383 207C831.383 207 831.383 207 831.383 207.192V207.383C831.383 207.383 831.383 207.383 831.383 207.575V207.766V207.958V208.15C831.383 208.15 831.383 208.15 831.383 208.341C831.383 208.341 831.383 208.341 831.383 208.533V208.724C831.383 208.724 831.383 208.724 831.383 208.916C831.383 208.916 831.383 208.916 831.383 209.107C831.383 209.107 831.383 209.107 831.383 209.299C831.383 209.299 831.383 209.299 831.383 209.49C831.383 209.49 831.383 209.49 831.383 209.682V209.873C831.383 209.873 831.383 209.873 831.383 210.065C831.383 210.256 831.383 210.256 831.383 210.448C831.383 210.448 831.383 210.448 831.383 210.639V210.831V211.022C831.383 211.022 831.383 211.022 831.383 211.214V211.405C831.383 211.405 831.383 211.405 831.383 211.597V211.788V211.98V212.171C831.383 212.171 831.575 212.171 831.575 211.98C831.575 211.98 831.575 211.98 831.767 211.98C831.767 211.98 831.767 211.98 831.767 211.788V211.597V211.405C831.767 211.214 831.767 211.214 831.767 211.022C831.767 210.831 831.767 210.831 831.767 210.639V210.448C831.767 210.448 831.767 210.448 831.767 210.256C831.767 210.256 831.767 210.256 831.767 210.065V209.873C831.767 209.873 831.767 209.873 831.767 209.682V209.49C831.767 209.49 831.767 209.49 831.767 209.299V209.107V208.916C831.767 208.916 831.767 208.916 831.767 208.724C831.767 208.724 831.767 208.533 831.959 208.533C831.959 208.533 831.959 208.533 831.959 208.341C831.959 208.341 831.959 208.341 831.959 208.15C831.959 208.15 832.151 208.15 831.959 207.958C831.959 207.958 831.959 207.766 832.151 207.766C832.151 207.766 832.151 207.767 832.343 207.575C832.343 207.575 832.343 207.575 832.343 207.383C832.343 207.192 832.535 207.192 832.535 207L832.727 206.809C832.727 206.809 832.727 206.809 832.919 206.809C832.919 206.809 833.111 206.809 833.111 206.617C833.111 206.617 833.303 206.426 833.495 206.426C833.687 206.426 833.879 206.234 833.879 206.234H834.071C834.071 206.234 834.071 206.234 834.263 206.234H834.455H834.647H834.839H835.031H835.223H835.415C835.607 206.234 835.607 206.234 835.799 206.234C835.991 206.234 835.991 206.234 836.183 206.234H836.375C836.567 206.234 836.567 206.234 836.759 206.234H836.951H837.143C839.639 206.617 839.639 206.426 839.639 206.234ZM832.919 197.041C832.919 197.424 832.919 197.424 832.919 197.041ZM832.343 199.723C831.959 199.723 831.959 199.531 832.343 199.723ZM831.767 200.68C831.767 200.489 831.767 200.489 831.767 200.68ZM834.839 206.234C835.223 206.234 835.223 206.234 834.839 206.234ZM835.415 206.234C835.415 205.851 835.415 205.851 835.415 206.234ZM836.759 205.66C836.567 205.66 836.567 205.66 836.567 205.66C836.375 205.66 836.375 205.66 836.183 205.66H835.991H835.799H835.607C835.607 205.66 835.607 205.66 835.415 205.66C835.415 205.66 835.223 205.66 835.223 205.851C835.223 205.851 835.031 205.851 835.031 206.043L834.839 206.234C834.839 206.234 834.839 206.234 834.647 206.426C834.647 206.426 834.647 206.426 834.455 206.617C834.455 206.617 834.455 206.617 834.263 206.809C834.263 206.809 834.263 207 834.071 207C834.071 207 834.071 207 834.071 207.192L833.879 207.383C833.879 207.383 833.879 207.383 833.879 207.575C833.879 207.575 833.879 207.766 833.687 207.766C833.687 207.766 833.687 207.958 833.495 207.958C833.495 207.958 833.495 207.958 833.303 208.15C833.303 208.15 833.303 208.15 833.303 208.341C833.303 208.341 833.303 208.341 833.303 208.533C833.303 208.533 833.303 208.533 833.303 208.724C833.303 208.724 833.303 208.724 833.111 208.724L832.919 208.916V209.107C832.919 209.107 832.919 209.299 832.727 209.299C832.727 209.107 832.727 209.107 832.727 208.916V208.724V208.533V208.341V208.15V207.958V207.766V207.575C832.727 207.575 832.727 207.575 832.727 207.383V207.192C832.727 207 832.727 207 832.727 206.809C832.727 206.809 832.727 206.617 832.535 206.617C832.535 206.426 832.343 206.426 832.343 206.234C832.343 206.234 832.343 206.043 832.151 206.043C832.151 206.043 832.151 206.043 831.959 206.043C831.959 206.043 831.959 206.043 831.767 205.851C831.767 205.851 831.767 205.851 831.575 205.66C831.575 205.66 831.575 205.66 831.383 205.66C831.383 205.66 831.383 205.66 831.191 205.468C831.191 205.468 831.191 205.468 830.999 205.468C830.999 205.468 830.999 205.468 830.807 205.468H830.615C830.615 205.468 830.615 205.468 830.423 205.468C830.423 205.468 830.231 205.468 830.231 205.277H830.039C830.039 205.277 829.847 205.277 829.655 205.085H829.463C829.463 205.085 829.463 205.085 829.271 205.085H829.079H828.887C828.887 205.085 828.887 205.085 828.695 205.085C828.695 205.085 828.695 205.085 828.503 205.085C828.503 205.085 828.503 205.085 828.695 205.085C828.695 205.085 828.695 205.085 828.887 205.085H829.079H829.271C829.271 205.085 829.271 205.085 829.463 205.085H829.655C829.655 205.085 829.655 205.085 829.847 205.085C829.847 205.085 829.847 205.085 830.039 205.085H830.231H830.423H830.615C830.615 205.085 830.615 205.085 830.807 205.085C830.807 205.085 830.807 205.085 830.999 205.085H831.191H831.383H831.575C831.575 205.085 831.767 205.085 831.767 204.894C831.767 204.894 831.767 204.702 831.959 204.702C831.959 204.511 832.151 204.511 832.151 204.319C832.151 204.319 832.151 204.128 832.343 204.128C832.343 204.128 832.343 203.936 832.535 203.936V203.745C832.535 203.745 832.535 203.745 832.535 203.553C832.535 203.553 832.535 203.362 832.727 203.362C832.727 203.362 832.727 203.362 832.727 203.17V202.978C832.727 202.978 832.727 202.787 832.919 202.787V202.595C832.919 202.595 832.919 202.595 832.919 202.404V202.212V202.021V201.255V201.446V201.638V201.829V202.021C832.919 202.021 832.919 202.021 832.919 202.212V202.404C832.919 202.404 832.919 202.404 832.919 202.595V202.787V202.978C832.919 203.17 832.919 203.17 833.111 203.362V203.553C833.111 203.553 833.111 203.553 833.111 203.745C833.111 203.745 833.111 203.745 833.111 203.936V204.128C833.111 204.128 833.111 204.319 833.303 204.319C833.303 204.319 833.303 204.319 833.303 204.511C833.303 204.511 833.303 204.702 833.495 204.702C833.495 204.702 833.495 204.894 833.687 204.894C833.687 205.085 833.879 205.085 834.071 205.085H834.263C834.263 205.085 834.263 205.085 834.455 205.085C834.455 205.085 834.455 205.085 834.647 205.085C834.647 205.085 834.647 205.085 834.839 205.085C836.375 205.468 836.375 205.468 836.759 205.66C836.375 205.468 836.375 205.468 836.759 205.66C836.759 205.468 836.375 205.468 836.759 205.66C836.759 205.468 836.759 205.468 836.759 205.66Z" fill="#DD53FF"/>
<path d="M839.642 162.961C839.45 162.77 839.45 162.77 839.45 162.77C839.45 162.77 839.45 162.77 839.258 162.77C839.258 162.77 839.258 162.77 839.066 162.77C839.066 162.77 839.066 162.77 838.874 162.77C838.874 162.77 838.874 162.77 838.682 162.77C838.682 162.77 838.682 162.77 838.49 162.77C838.49 162.77 838.49 162.77 838.298 162.77C838.298 162.77 838.298 162.77 838.106 162.77C838.106 162.77 838.106 162.77 838.106 162.578C838.106 162.578 838.106 162.578 838.106 162.387C838.106 162.387 838.106 162.387 838.106 162.195C838.106 162.195 838.106 162.195 838.106 162.004C838.106 162.004 838.106 162.004 838.106 161.812C838.106 161.812 838.106 161.812 838.106 161.621V161.429V161.046C838.106 161.046 838.106 161.046 838.106 160.855C838.106 160.855 838.106 160.855 838.106 160.663V160.472C838.106 160.472 838.106 160.472 838.106 160.28V160.089V159.897V159.706V159.131C838.106 158.939 838.106 158.748 838.106 158.556C838.106 158.556 838.106 158.556 837.914 158.556C837.914 158.556 837.914 158.556 837.914 158.748V158.939C837.914 158.939 837.914 158.939 837.914 159.131C837.914 159.131 837.914 159.131 837.914 159.322V159.514C837.914 159.514 837.914 159.514 837.914 159.706C837.914 159.706 837.722 159.706 837.722 159.897C837.722 159.897 837.722 159.897 837.53 159.897C837.53 159.897 837.53 159.897 837.338 159.897C837.338 159.897 837.338 159.897 837.146 159.897C837.146 159.897 837.146 159.897 836.954 159.897H836.762H836.57C836.378 159.897 836.378 159.897 836.186 159.897H835.994C835.994 159.897 835.994 159.897 835.802 159.897C835.802 159.897 835.802 159.897 835.61 159.897C835.61 159.897 835.61 159.897 835.418 159.897H834.458C834.458 159.897 834.458 159.897 834.65 159.897H834.842H835.034H835.226C835.226 159.897 835.226 159.897 835.418 159.897H835.61H835.802H835.994H836.186C836.186 159.897 836.378 159.897 836.378 160.089L836.57 160.28C836.57 160.28 836.57 160.28 836.57 160.472C836.57 160.472 836.57 160.472 836.57 160.663C836.57 160.663 836.57 160.663 836.57 160.855C836.57 160.855 836.57 160.855 836.57 161.046V161.238C836.57 161.238 836.57 161.238 836.57 161.429C836.57 161.429 836.57 161.429 836.57 161.621C836.57 161.621 836.57 161.621 836.57 161.429V161.238V161.046V160.855C836.57 160.855 836.57 160.855 836.57 160.663V160.472C836.57 160.472 836.57 160.472 836.57 160.28C836.57 160.28 836.57 160.28 836.57 160.089C836.57 160.089 836.57 159.897 836.762 159.897C836.762 159.897 836.762 159.897 836.954 159.706C836.954 159.706 837.146 159.706 837.146 159.514C837.146 159.514 837.338 159.514 837.338 159.322C837.338 159.322 837.338 159.322 837.53 159.322H837.722C837.722 159.322 837.722 159.322 837.914 159.322C837.914 159.322 837.914 159.322 838.106 159.322H838.298C838.298 159.322 838.298 159.322 838.49 159.322H838.682H838.874C838.874 159.322 838.874 159.322 839.066 159.322H839.258C839.258 163.153 839.258 163.153 839.642 162.961C839.258 163.153 839.258 162.961 839.642 162.961ZM837.53 162.387C837.338 162.387 837.338 162.387 837.53 162.387ZM835.418 158.556C835.61 158.556 835.61 158.556 835.418 158.556ZM837.722 162.578C837.53 162.578 837.338 162.578 837.338 162.578C837.338 162.578 837.338 162.578 837.146 162.578C837.146 162.578 837.146 162.578 836.954 162.578C836.954 162.578 836.954 162.578 836.954 162.77C836.954 162.77 836.954 162.77 836.954 162.961C836.954 162.961 836.954 162.961 836.954 163.153C836.954 163.153 836.954 163.153 836.954 163.344V163.153V162.961C836.954 162.961 836.954 162.961 836.954 162.77C836.954 162.77 836.954 162.77 836.954 162.578V162.387C836.954 162.387 836.954 162.387 836.954 162.195V162.004C836.954 162.004 836.954 162.004 836.954 161.812C836.954 161.812 836.954 161.812 836.954 161.621V161.429V161.046C836.954 161.046 836.954 160.855 836.762 160.855C836.762 160.855 836.762 160.855 836.762 160.663C836.762 160.663 836.762 160.663 836.57 160.663C836.57 160.663 836.57 160.663 836.378 160.663C836.378 160.663 836.378 160.663 836.186 160.663H835.994C835.994 160.663 835.994 160.663 835.802 160.663C835.802 160.663 835.802 160.663 835.61 160.663C835.61 160.663 835.61 160.663 835.802 160.663H835.994C835.994 160.663 835.994 160.663 836.186 160.663C836.186 160.663 836.186 160.663 836.378 160.663C836.378 160.663 836.378 160.663 836.57 160.663C836.57 160.663 836.57 160.472 836.762 160.472C836.762 160.472 836.762 160.472 836.762 160.28C836.762 160.28 836.762 160.28 836.762 160.089C836.762 160.089 836.762 160.089 836.762 159.897C836.762 159.897 836.762 159.897 836.762 159.706C836.762 159.706 836.762 159.706 836.762 159.514C836.762 159.514 836.762 159.514 836.762 159.322C836.762 159.322 836.762 159.322 836.762 159.514C836.762 159.514 836.762 159.514 836.762 159.706C836.762 159.706 836.762 159.706 836.762 159.897V160.089C836.762 160.089 836.762 160.089 836.762 160.28V160.472C836.762 160.472 836.762 160.472 836.762 160.663C836.762 160.663 836.762 160.663 836.762 160.855H836.954C836.954 160.855 836.954 160.855 837.146 160.855C837.53 162.578 837.722 162.578 837.722 162.578Z" fill="#DD53FF"/>
<path d="M875.393 92.906C876.353 92.906 876.929 92.7145 877.697 92.7145C878.657 92.523 879.425 92.3315 880.385 92.523H880.577C881.537 92.523 881.729 92.7145 881.537 93.6721C881.537 94.0552 881.153 94.6297 880.961 95.0128C880.577 95.3958 880.385 95.5873 879.809 96.1619C879.233 96.7364 878.657 97.311 878.081 97.8856C877.889 98.0771 877.889 98.0771 878.081 98.2686C879.233 99.6092 880.385 101.141 881.345 102.482C881.537 102.674 881.537 103.057 881.537 103.631C881.345 104.014 881.153 104.589 880.577 104.206C880.001 104.206 879.233 104.206 878.657 104.014C877.121 103.823 875.585 103.44 874.049 103.057C873.857 103.057 873.665 103.057 873.473 102.865C873.089 102.865 872.897 102.865 872.897 103.248C872.705 103.631 872.705 104.206 872.513 104.78C872.129 106.121 871.937 107.27 871.361 108.611C871.169 108.994 871.169 109.568 870.977 109.951C870.977 110.143 870.785 110.334 870.593 110.526C870.401 110.717 870.401 110.717 870.017 110.717C869.633 110.526 869.057 110.334 868.865 109.76C868.289 108.802 867.521 107.845 866.561 106.887L866.369 106.695C865.025 107.653 863.873 108.419 862.529 109.377C862.145 109.76 861.569 109.951 860.993 110.334C860.033 110.717 859.457 110.526 859.265 109.76C859.073 109.185 859.073 108.419 859.073 107.845C859.073 106.695 858.881 105.546 858.881 104.589C858.881 104.397 858.689 104.206 858.689 104.206C858.113 103.823 857.345 103.631 856.385 103.057C855.233 102.674 854.465 102.099 853.121 102.099H852.929C851.969 101.907 851.777 100.95 852.545 100.567C852.737 100.375 852.929 100.375 853.121 100.184C854.465 99.2262 855.809 98.2686 856.961 97.1195L857.153 96.928C856.961 96.7364 856.961 96.5449 856.769 96.3534C856.193 95.3958 855.233 94.4382 854.465 93.4806C854.273 93.2891 854.081 93.0976 854.273 92.523C854.465 92.3315 854.657 92.3315 855.233 92.3315C855.809 92.3315 856.769 92.523 857.537 92.523C858.497 92.7145 859.457 92.7145 860.417 92.906C860.609 92.906 860.993 92.906 861.569 93.0976C861.569 92.906 861.569 92.7145 861.569 92.523C861.761 91.3739 861.761 90.2248 861.953 89.2672C861.953 88.6926 861.953 88.118 862.145 87.5435C862.145 87.352 862.145 87.1604 862.145 86.9689C862.145 86.5859 862.529 86.3944 863.105 86.5859C863.297 86.5859 863.297 86.7774 863.489 86.9689C864.833 88.118 865.985 89.4587 866.945 90.7993C867.329 91.1824 867.905 91.9484 868.289 92.523C868.289 92.523 868.289 92.523 868.481 92.523C868.865 92.14 869.633 91.5654 870.017 90.9908C870.593 90.4163 871.553 89.6502 872.321 89.0756C873.089 88.5011 873.665 87.735 874.049 87.1604C874.241 86.9689 874.433 86.9689 874.433 86.7774C874.817 86.5859 875.009 86.5859 875.585 86.9689C875.969 87.352 875.969 88.118 875.969 88.6926C875.969 90.0332 875.969 91.3739 875.969 92.7145C875.393 92.14 875.393 92.523 875.393 92.906ZM854.849 92.7145C855.425 93.6721 856.193 94.4382 856.769 95.2043C856.961 95.3958 857.153 95.5873 857.345 96.1619C857.537 96.3534 857.537 96.5449 857.537 97.1195C857.537 97.311 857.345 97.311 857.153 97.5025C857.153 97.5025 857.153 97.5025 856.961 97.694C855.617 98.8432 854.273 99.9923 852.929 100.758L852.737 100.95C853.889 101.141 855.041 101.524 856.001 102.099C856.577 102.291 857.537 102.674 858.305 103.248C858.689 103.44 858.881 103.823 858.881 104.589C858.881 105.929 859.073 107.27 859.073 108.611C859.073 108.994 859.073 109.185 859.265 109.76C859.649 109.568 860.225 109.377 860.609 109.185C861.953 108.036 863.681 107.27 865.025 106.121C865.025 106.121 865.025 106.121 865.217 106.121C865.601 105.929 866.177 105.929 866.369 106.312C866.369 106.504 866.561 106.504 866.561 106.695C867.137 107.653 867.905 108.611 868.865 109.568C868.865 109.76 869.057 109.76 869.249 109.951C869.633 108.611 870.209 107.27 870.593 105.929C870.785 104.972 870.977 104.206 871.169 103.44C871.169 103.248 871.361 102.865 871.553 102.482C871.745 102.291 871.937 102.099 872.129 102.099C872.321 102.099 872.513 102.099 872.705 102.099C874.241 102.291 875.585 102.674 877.121 103.057C878.081 103.248 878.657 103.248 879.617 103.44C879.809 103.44 879.809 103.44 880.001 103.44V103.248C879.617 102.674 878.849 101.907 878.465 101.333C877.889 100.375 877.121 99.8008 876.737 98.8432C876.353 98.4601 876.353 98.2686 876.737 97.694C877.313 96.7364 878.081 96.1619 879.041 95.3958C879.425 95.2043 879.617 94.8212 880.001 94.4382C880.001 94.4382 880.001 94.2467 880.193 94.0552C879.809 94.0552 879.233 94.0552 878.849 94.2467C877.697 94.4382 876.929 94.4382 875.777 94.6297C875.585 94.6297 875.393 94.6297 875.201 94.8212C875.009 94.8212 874.625 94.8212 874.241 94.6297C873.857 94.4382 874.049 94.2467 874.241 94.0552L874.433 93.8636C874.241 91.5654 874.433 89.6502 873.857 87.5435L873.665 87.735C873.281 88.118 872.705 88.6926 872.321 89.0756C870.977 90.7993 869.249 92.14 867.521 93.4806C867.329 93.6721 867.137 93.6721 866.945 93.6721C866.753 93.6721 866.753 93.4806 866.753 93.2891C866.753 93.0976 866.753 92.906 866.561 92.906C865.217 91.7569 864.065 90.4163 862.721 89.0756C862.529 88.8841 862.145 88.5011 861.761 88.118C861.569 89.2672 861.569 90.4163 861.377 91.3739C861.185 92.523 860.993 93.6721 860.801 94.6297C860.609 94.6297 860.417 94.6297 860.417 94.4382C860.225 94.2467 859.841 94.2467 859.457 94.2467C859.073 94.2467 859.073 94.2467 859.073 94.2467C857.921 94.0552 856.769 94.0552 855.809 93.8636C855.425 92.906 855.233 92.906 854.849 92.7145Z" fill="#DD53FF"/>
<path d="M869.434 81.2186C869.434 81.4101 869.434 81.6016 869.434 81.7931C869.242 82.9422 869.05 84.0914 868.858 85.049C868.858 85.432 868.474 85.6235 867.898 85.2405C867.706 85.049 867.706 85.0489 867.706 84.6659C867.706 84.0913 867.898 83.5168 867.898 82.9422C867.898 82.3677 868.09 81.7931 868.282 81.2186C868.282 81.027 868.474 80.644 868.474 80.261L868.666 80.0694C868.858 79.8779 869.05 79.8779 869.05 80.0694C869.242 80.8355 869.434 81.027 869.434 81.2186Z" fill="#DD53FF"/>
<path d="M863.472 110.515C863.472 110.706 863.472 110.706 863.472 110.706C863.28 111.089 863.088 111.855 862.896 112.238C862.704 112.813 862.512 113.388 861.936 113.962C861.936 114.154 861.744 114.154 861.744 114.345C861.552 114.537 861.552 114.537 861.36 114.345C861.168 114.345 861.168 114.154 861.168 113.962C861.36 113.388 861.36 112.621 861.552 112.238C861.744 111.664 861.936 110.898 862.128 110.323C862.128 110.132 862.32 109.94 862.704 109.94C862.896 109.94 862.896 109.94 863.088 110.132C863.28 110.132 863.472 110.323 863.472 110.515Z" fill="#DD53FF"/>
<path d="M882.119 86.5906C882.119 86.5906 882.119 86.7822 881.927 86.7822C881.735 86.9737 881.735 86.9737 881.543 87.1652C880.967 87.7398 880.199 88.6974 879.623 89.4634C879.431 89.655 879.239 89.8465 879.047 90.038C878.855 90.2295 878.471 90.2295 877.895 89.8465C877.703 89.655 877.703 89.4634 877.895 89.2719C878.087 89.0804 878.471 88.6974 878.855 88.3143C879.815 87.7398 880.391 87.1652 881.351 86.5906C881.543 86.5906 881.543 86.3991 881.735 86.3991C881.735 86.0161 882.119 86.3991 882.119 86.5906Z" fill="#DD53FF"/>
<path d="M852.916 85.631C853.108 85.8225 853.3 85.8225 853.492 86.014C854.452 86.9716 855.412 87.5462 856.372 88.5038C856.756 88.6953 856.756 88.8868 856.564 89.0783C856.372 89.4614 855.988 89.4614 855.604 89.2699C855.412 89.0783 855.22 88.8868 854.644 88.6953C853.684 88.1207 853.108 87.1631 852.34 86.2055C852.916 86.014 852.532 85.8225 852.916 85.631Z" fill="#DD53FF"/>
<path d="M855.212 105.723C855.212 105.915 855.212 106.107 855.02 106.107C854.828 106.298 854.636 106.298 854.444 106.49C853.292 107.064 852.14 107.83 850.988 108.405C850.988 108.405 850.796 108.405 850.796 108.596H850.604C850.412 108.596 850.604 108.405 850.604 108.213C850.604 108.022 850.796 108.022 850.796 108.022C851.372 107.639 851.948 107.064 852.524 106.681C853.1 106.298 854.06 105.723 854.828 105.34C855.02 105.34 855.02 105.149 855.212 105.149C855.212 105.34 855.212 105.532 855.212 105.723Z" fill="#DD53FF"/>
<path d="M884.034 99.5986C882.882 99.5986 881.73 99.407 880.962 99.2155C880.578 99.2155 880.386 98.8325 880.578 98.641C880.578 98.4494 880.77 98.2579 880.962 98.4494C881.154 98.4494 881.538 98.4494 881.922 98.4494C883.074 98.641 884.226 98.641 884.994 99.024H885.186L885.378 99.2155L885.186 99.407C884.802 99.5986 884.418 99.5986 884.034 99.5986Z" fill="#DD53FF"/>
<path d="M853.48 97.685C853.288 98.0681 852.904 98.0681 852.328 98.0681C851.944 98.0681 851.176 98.0681 850.792 97.8766C850.216 97.8766 849.448 97.685 849.064 97.4935H848.872L848.68 97.302L848.872 97.1105C849.832 97.1105 850.6 97.1105 851.752 97.1105C852.136 97.1105 852.328 97.1105 852.904 97.1105C852.904 97.302 853.288 97.302 853.48 97.685Z" fill="#DD53FF"/>
<path d="M878.466 109.175C878.466 109.175 878.274 109.175 878.274 108.983C877.122 107.834 876.354 107.068 875.202 105.919C875.202 105.919 875.202 105.919 875.01 105.727C874.818 105.536 875.01 105.344 875.202 105.153C875.394 104.961 875.586 105.153 875.778 105.344C875.97 105.536 876.162 105.919 876.354 106.302C876.738 106.685 877.314 107.451 877.698 107.834C877.89 108.025 878.082 108.409 878.274 108.792C878.466 108.792 878.466 108.983 878.466 109.175Z" fill="#DD53FF"/>
</svg>
