<svg width="12" height="12" viewBox="0 0 12 12" fill="none" xmlns="http://www.w3.org/2000/svg">
<path d="M5.99961 6.3C6.49667 6.3 6.89961 5.89706 6.89961 5.4C6.89961 4.90294 6.49667 4.5 5.99961 4.5C5.50255 4.5 5.09961 4.90294 5.09961 5.4C5.09961 5.89706 5.50255 6.3 5.99961 6.3Z" fill="white"/>
<path d="M1.62271 6.3546C1.5436 6.2531 1.50044 6.1282 1.5 5.99951C1.49957 5.87082 1.54189 5.74563 1.62031 5.6436C2.22661 4.8486 3.86581 3 6.00001 3C8.10601 3 9.76081 4.8474 10.3755 5.643C10.455 5.74504 10.4981 5.87067 10.4981 6C10.4981 6.12933 10.455 6.25496 10.3755 6.357C9.76081 7.1526 8.10601 9 6.00001 9C3.89401 9 2.23591 7.1484 1.62271 6.3546Z" stroke="white" stroke-width="0.72" stroke-miterlimit="10" stroke-linecap="square"/>
<path d="M5.99961 7.8C7.32509 7.8 8.39961 6.72548 8.39961 5.4C8.39961 4.07452 7.32509 3 5.99961 3C4.67413 3 3.59961 4.07452 3.59961 5.4C3.59961 6.72548 4.67413 7.8 5.99961 7.8Z" stroke="white" stroke-width="0.72" stroke-miterlimit="10" stroke-linecap="square"/>
<path d="M5.99961 6.3C6.49667 6.3 6.89961 5.89706 6.89961 5.4C6.89961 4.90294 6.49667 4.5 5.99961 4.5C5.50255 4.5 5.09961 4.90294 5.09961 5.4C5.09961 5.89706 5.50255 6.3 5.99961 6.3Z" stroke="white" stroke-width="0.72" stroke-miterlimit="10" stroke-linecap="square"/>
</svg>
