<svg width="25" height="24" viewBox="0 0 25 24" fill="none" xmlns="http://www.w3.org/2000/svg">
<path d="M11.9867 2.20032C12.2692 1.52111 13.2314 1.52112 13.5139 2.20033L15.8375 7.78692C15.9566 8.07326 16.2259 8.2689 16.535 8.29369L22.5662 8.7772C23.2995 8.83599 23.5968 9.75107 23.0381 10.2296L18.443 14.1659C18.2075 14.3676 18.1046 14.6842 18.1766 14.9858L19.5805 20.8712C19.7512 21.5868 18.9727 22.1523 18.345 21.7689L13.1814 18.615C12.9168 18.4534 12.5839 18.4534 12.3193 18.615L7.1557 21.7689C6.52793 22.1523 5.74951 21.5868 5.92019 20.8712L7.32408 14.9858C7.39604 14.6842 7.29318 14.3676 7.05766 14.1659L2.46252 10.2296C1.90385 9.75107 2.20118 8.83599 2.93445 8.7772L8.96565 8.29369C9.27477 8.2689 9.54405 8.07326 9.66315 7.78692L11.9867 2.20032Z" fill="url(#paint0_linear_1_1344)"/>
<defs>
<linearGradient id="paint0_linear_1_1344" x1="2.17236" y1="1.69092" x2="23.3283" y2="1.69092" gradientUnits="userSpaceOnUse">
<stop offset="0.4999" stop-color="#F3C63F"/>
<stop offset="0.5" stop-color="#F3C63F"/>
</linearGradient>
</defs>
</svg>
