<svg width="25" height="24" viewBox="0 0 25 24" fill="none" xmlns="http://www.w3.org/2000/svg">
<path d="M11.7367 2.20032C12.0192 1.52111 12.9814 1.52112 13.2639 2.20033L15.5875 7.78692C15.7066 8.07326 15.9759 8.2689 16.285 8.29369L22.3162 8.7772C23.0495 8.83599 23.3468 9.75107 22.7881 10.2296L18.193 14.1659C17.9575 14.3676 17.8546 14.6842 17.9266 14.9858L19.3305 20.8712C19.5012 21.5868 18.7227 22.1523 18.095 21.7689L12.9314 18.615C12.6668 18.4534 12.3339 18.4534 12.0693 18.615L6.9057 21.7689C6.27793 22.1523 5.49951 21.5868 5.67019 20.8712L7.07408 14.9858C7.14604 14.6842 7.04318 14.3676 6.80766 14.1659L2.21252 10.2296C1.65385 9.75107 1.95118 8.83599 2.68445 8.7772L8.71565 8.29369C9.02477 8.2689 9.29405 8.07326 9.41315 7.78692L11.7367 2.20032Z" fill="url(#paint0_linear_1_1337)"/>
<defs>
<linearGradient id="paint0_linear_1_1337" x1="1.92236" y1="1.69092" x2="23.0783" y2="1.69092" gradientUnits="userSpaceOnUse">
<stop offset="0.4999" stop-color="#DEE1E6"/>
<stop offset="0.5" stop-color="#DEE1E6"/>
</linearGradient>
</defs>
</svg>
