<svg width="16" height="16" viewBox="0 0 16 16" fill="none" xmlns="http://www.w3.org/2000/svg">
<path d="M7.99999 9.20005C8.66273 9.20005 9.19999 8.66279 9.19999 8.00005C9.19999 7.33731 8.66273 6.80005 7.99999 6.80005C7.33725 6.80005 6.79999 7.33731 6.79999 8.00005C6.79999 8.66279 7.33725 9.20005 7.99999 9.20005Z" stroke="#9095A0" stroke-width="0.8" stroke-miterlimit="10" stroke-linecap="round" stroke-linejoin="round"/>
<path d="M12.8 9.20005C13.4627 9.20005 14 8.66279 14 8.00005C14 7.33731 13.4627 6.80005 12.8 6.80005C12.1372 6.80005 11.6 7.33731 11.6 8.00005C11.6 8.66279 12.1372 9.20005 12.8 9.20005Z" stroke="#9095A0" stroke-width="0.8" stroke-miterlimit="10" stroke-linecap="round" stroke-linejoin="round"/>
<path d="M3.2 9.20005C3.86274 9.20005 4.4 8.66279 4.4 8.00005C4.4 7.33731 3.86274 6.80005 3.2 6.80005C2.53726 6.80005 2 7.33731 2 8.00005C2 8.66279 2.53726 9.20005 3.2 9.20005Z" stroke="#9095A0" stroke-width="0.8" stroke-miterlimit="10" stroke-linecap="round" stroke-linejoin="round"/>
</svg>
