<svg width="100" height="20" viewBox="0 0 100 20" fill="none" xmlns="http://www.w3.org/2000/svg">
<path d="M9.36392 1.83356C9.59934 1.26755 10.4012 1.26756 10.6366 1.83357L12.5729 6.48906C12.6722 6.72768 12.8966 6.89071 13.1542 6.91137L18.1802 7.31429C18.7913 7.36328 19.039 8.12585 18.5734 8.52463L14.7442 11.8049C14.5479 11.973 14.4622 12.2368 14.5222 12.4881L15.6921 17.3926C15.8343 17.989 15.1856 18.4602 14.6625 18.1407L10.3595 15.5125C10.139 15.3778 9.86159 15.3778 9.64109 15.5125L5.33809 18.1407C4.81494 18.4602 4.16626 17.989 4.30849 17.3926L5.4784 12.4881C5.53837 12.2368 5.45265 11.973 5.25639 11.8049L1.4271 8.52463C0.961545 8.12585 1.20932 7.36328 1.82038 7.31429L6.84638 6.91137C7.10398 6.89071 7.32838 6.72768 7.42763 6.48906L9.36392 1.83356Z" fill="url(#paint0_linear_1_1570)"/>
<path d="M29.3639 1.83356C29.5993 1.26755 30.4012 1.26756 30.6366 1.83357L32.5729 6.48906C32.6722 6.72768 32.8966 6.89071 33.1542 6.91137L38.1802 7.31429C38.7913 7.36328 39.039 8.12585 38.5734 8.52463L34.7442 11.8049C34.5479 11.973 34.4622 12.2368 34.5222 12.4881L35.6921 17.3926C35.8343 17.989 35.1856 18.4602 34.6625 18.1407L30.3595 15.5125C30.139 15.3778 29.8616 15.3778 29.6411 15.5125L25.3381 18.1407C24.8149 18.4602 24.1663 17.989 24.3085 17.3926L25.4784 12.4881C25.5384 12.2368 25.4527 11.973 25.2564 11.8049L21.4271 8.52463C20.9615 8.12585 21.2093 7.36328 21.8204 7.31429L26.8464 6.91137C27.104 6.89071 27.3284 6.72768 27.4276 6.48906L29.3639 1.83356Z" fill="url(#paint1_linear_1_1570)"/>
<path d="M49.3639 1.83356C49.5993 1.26755 50.4012 1.26756 50.6366 1.83357L52.5729 6.48906C52.6722 6.72768 52.8966 6.89071 53.1542 6.91137L58.1802 7.31429C58.7913 7.36328 59.039 8.12585 58.5734 8.52463L54.7442 11.8049C54.5479 11.973 54.4622 12.2368 54.5222 12.4881L55.6921 17.3926C55.8343 17.989 55.1856 18.4602 54.6625 18.1407L50.3595 15.5125C50.139 15.3778 49.8616 15.3778 49.6411 15.5125L45.3381 18.1407C44.8149 18.4602 44.1663 17.989 44.3085 17.3926L45.4784 12.4881C45.5384 12.2368 45.4527 11.973 45.2564 11.8049L41.4271 8.52463C40.9615 8.12585 41.2093 7.36328 41.8204 7.31429L46.8464 6.91137C47.104 6.89071 47.3284 6.72768 47.4276 6.48906L49.3639 1.83356Z" fill="url(#paint2_linear_1_1570)"/>
<path d="M69.3639 1.83356C69.5993 1.26755 70.4012 1.26756 70.6366 1.83357L72.5729 6.48906C72.6722 6.72768 72.8966 6.89071 73.1542 6.91137L78.1802 7.31429C78.7913 7.36328 79.039 8.12585 78.5734 8.52463L74.7442 11.8049C74.5479 11.973 74.4622 12.2368 74.5222 12.4881L75.6921 17.3926C75.8343 17.989 75.1856 18.4602 74.6625 18.1407L70.3595 15.5125C70.139 15.3778 69.8616 15.3778 69.6411 15.5125L65.3381 18.1407C64.8149 18.4602 64.1663 17.989 64.3085 17.3926L65.4784 12.4881C65.5384 12.2368 65.4527 11.973 65.2564 11.8049L61.4271 8.52463C60.9615 8.12585 61.2093 7.36328 61.8204 7.31429L66.8464 6.91137C67.104 6.89071 67.3284 6.72768 67.4276 6.48906L69.3639 1.83356Z" fill="url(#paint3_linear_1_1570)"/>
<path d="M89.3639 1.83356C89.5993 1.26755 90.4012 1.26756 90.6366 1.83357L92.5729 6.48906C92.6722 6.72768 92.8966 6.89071 93.1542 6.91137L98.1802 7.31429C98.7913 7.36328 99.039 8.12585 98.5734 8.52463L94.7442 11.8049C94.5479 11.973 94.4622 12.2368 94.5222 12.4881L95.6921 17.3926C95.8343 17.989 95.1856 18.4602 94.6625 18.1407L90.3595 15.5125C90.139 15.3778 89.8616 15.3778 89.6411 15.5125L85.3381 18.1407C84.8149 18.4602 84.1663 17.989 84.3085 17.3926L85.4784 12.4881C85.5384 12.2368 85.4527 11.973 85.2564 11.8049L81.4271 8.52463C80.9615 8.12585 81.2093 7.36328 81.8204 7.31429L86.8464 6.91137C87.104 6.89071 87.3284 6.72768 87.4276 6.48906L89.3639 1.83356Z" fill="url(#paint4_linear_1_1570)"/>
<defs>
<linearGradient id="paint0_linear_1_1570" x1="1.1853" y1="1.40906" x2="18.8152" y2="1.40906" gradientUnits="userSpaceOnUse">
<stop offset="0.4999" stop-color="#F3C63F"/>
<stop offset="0.5" stop-color="#F3C63F"/>
</linearGradient>
<linearGradient id="paint1_linear_1_1570" x1="21.1853" y1="1.40906" x2="38.8152" y2="1.40906" gradientUnits="userSpaceOnUse">
<stop offset="0.4999" stop-color="#F3C63F"/>
<stop offset="0.5" stop-color="#F3C63F"/>
</linearGradient>
<linearGradient id="paint2_linear_1_1570" x1="41.1853" y1="1.40906" x2="58.8152" y2="1.40906" gradientUnits="userSpaceOnUse">
<stop offset="0.4999" stop-color="#F3C63F"/>
<stop offset="0.5" stop-color="#F3C63F"/>
</linearGradient>
<linearGradient id="paint3_linear_1_1570" x1="61.1853" y1="1.40906" x2="78.8152" y2="1.40906" gradientUnits="userSpaceOnUse">
<stop offset="0.4999" stop-color="#F3C63F"/>
<stop offset="0.5" stop-color="#F3C63F"/>
</linearGradient>
<linearGradient id="paint4_linear_1_1570" x1="81.1853" y1="1.40906" x2="98.8152" y2="1.40906" gradientUnits="userSpaceOnUse">
<stop offset="0.4999" stop-color="#DEE1E6"/>
<stop offset="0.5" stop-color="#DEE1E6"/>
</linearGradient>
</defs>
</svg>
