<svg width="17" height="16" viewBox="0 0 17 16" fill="none" xmlns="http://www.w3.org/2000/svg">
<path d="M2.5 6L14.5 6" stroke="white" stroke-width="0.8" stroke-miterlimit="10" stroke-linecap="round" stroke-linejoin="round"/>
<path d="M12.5 6L14.3056 10.0312C15.0352 11.9472 13.6208 14 11.5704 14L5.4296 14C3.3792 14 1.9648 11.9472 2.6944 10.0312L4.5 6" stroke="white" stroke-width="0.8" stroke-miterlimit="10" stroke-linecap="round" stroke-linejoin="round"/>
<path d="M6.0999 4.4C6.76264 4.4 7.2999 3.86274 7.2999 3.2C7.2999 2.53726 6.76264 2 6.0999 2C5.43716 2 4.8999 2.53726 4.8999 3.2C4.8999 3.86274 5.43716 4.4 6.0999 4.4Z" stroke="white" stroke-width="0.8" stroke-miterlimit="10" stroke-linecap="round" stroke-linejoin="round"/>
<path d="M10.9002 4.4C11.5629 4.4 12.1002 3.86274 12.1002 3.2C12.1002 2.53726 11.5629 2 10.9002 2C10.2375 2 9.7002 2.53726 9.7002 3.2C9.7002 3.86274 10.2375 4.4 10.9002 4.4Z" stroke="white" stroke-width="0.8" stroke-miterlimit="10" stroke-linecap="round" stroke-linejoin="round"/>
</svg>
