<svg width="16" height="16" viewBox="0 0 16 16" fill="none" xmlns="http://www.w3.org/2000/svg">
<path d="M2 6L14 6" stroke="white" stroke-width="0.8" stroke-miterlimit="10" stroke-linecap="round" stroke-linejoin="round"/>
<path d="M12 6L13.8056 10.0312C14.5352 11.9472 13.1208 14 11.0704 14L4.9296 14C2.8792 14 1.4648 11.9472 2.1944 10.0312L4 6" stroke="white" stroke-width="0.8" stroke-miterlimit="10" stroke-linecap="round" stroke-linejoin="round"/>
<path d="M5.5999 4.4C6.26264 4.4 6.7999 3.86274 6.7999 3.2C6.7999 2.53726 6.26264 2 5.5999 2C4.93716 2 4.3999 2.53726 4.3999 3.2C4.3999 3.86274 4.93716 4.4 5.5999 4.4Z" stroke="white" stroke-width="0.8" stroke-miterlimit="10" stroke-linecap="round" stroke-linejoin="round"/>
<path d="M10.4002 4.4C11.0629 4.4 11.6002 3.86274 11.6002 3.2C11.6002 2.53726 11.0629 2 10.4002 2C9.73745 2 9.2002 2.53726 9.2002 3.2C9.2002 3.86274 9.73745 4.4 10.4002 4.4Z" stroke="white" stroke-width="0.8" stroke-miterlimit="10" stroke-linecap="round" stroke-linejoin="round"/>
</svg>
