<svg width="21" height="20" viewBox="0 0 21 20" fill="none" xmlns="http://www.w3.org/2000/svg">
<path d="M16.5001 13.782C16.2528 14.3741 15.9491 14.9411 15.5931 15.475C15.0041 16.375 14.1741 17.488 13.1441 17.498C12.2301 17.507 11.9951 16.903 10.7541 16.91C9.51309 16.917 9.25409 17.51 8.34009 17.5C7.31109 17.491 6.52409 16.482 5.93509 15.585C4.28809 13.078 4.11509 10.135 5.13509 8.57096C5.44198 8.06035 5.86936 7.63274 6.3798 7.32557C6.89025 7.01839 7.4682 6.84102 8.06309 6.80896C9.15309 6.80896 9.83909 7.40896 10.7411 7.40896C11.6161 7.40896 12.1491 6.80896 13.4101 6.80896C13.9339 6.83274 14.446 6.9719 14.9098 7.2165C15.3736 7.46111 15.7776 7.80512 16.0931 8.22396C15.5802 8.50787 15.1594 8.93272 14.8804 9.44828C14.6013 9.96383 14.4758 10.5485 14.5186 11.1332C14.5614 11.7178 14.7708 12.278 15.1219 12.7474C15.4731 13.2168 15.9513 13.5758 16.5001 13.782Z" stroke="black" stroke-linecap="round" stroke-linejoin="round"/>
<path d="M13.0998 4.7C13.4081 4.32667 13.6389 3.89557 13.7785 3.43195C13.9181 2.96832 13.9637 2.4815 13.9128 2C12.9229 2.11725 12.0144 2.60581 11.3708 3.367C11.0549 3.72274 10.8176 4.14113 10.6744 4.59484C10.5312 5.04854 10.4853 5.52736 10.5398 6C11.0366 5.98835 11.5244 5.86553 11.9674 5.64056C12.4104 5.41559 12.7974 5.0942 13.0998 4.7Z" fill="black"/>
</svg>
