<svg width="25" height="24" viewBox="0 0 25 24" fill="none" xmlns="http://www.w3.org/2000/svg">
<path d="M11.4867 2.20032C11.7692 1.52111 12.7314 1.52112 13.0139 2.20033L15.3375 7.78692C15.4566 8.07326 15.7259 8.2689 16.035 8.29369L22.0662 8.7772C22.7995 8.83599 23.0968 9.75107 22.5381 10.2296L17.943 14.1659C17.7075 14.3676 17.6046 14.6842 17.6766 14.9858L19.0805 20.8712C19.2512 21.5868 18.4727 22.1523 17.845 21.7689L12.6814 18.615C12.4168 18.4534 12.0839 18.4534 11.8193 18.615L6.6557 21.7689C6.02793 22.1523 5.24951 21.5868 5.42019 20.8712L6.82408 14.9858C6.89604 14.6842 6.79318 14.3676 6.55766 14.1659L1.96252 10.2296C1.40385 9.75107 1.70118 8.83599 2.43445 8.7772L8.46565 8.29369C8.77477 8.2689 9.04405 8.07326 9.16315 7.78692L11.4867 2.20032Z" fill="url(#paint0_linear_1_1382)"/>
<defs>
<linearGradient id="paint0_linear_1_1382" x1="1.67236" y1="1.69092" x2="22.8283" y2="1.69092" gradientUnits="userSpaceOnUse">
<stop offset="0.4999" stop-color="#DEE1E6"/>
<stop offset="0.5" stop-color="#DEE1E6"/>
</linearGradient>
</defs>
</svg>
