<svg width="20" height="20" viewBox="0 0 20 20" fill="none" xmlns="http://www.w3.org/2000/svg">
<path d="M17.1913 8.6365L10.0323 8.6365V11.7045L14.0898 11.7045C13.4398 13.75 11.8398 14.432 9.99982 14.432C9.28694 14.4329 8.58435 14.2619 7.95168 13.9334C7.319 13.6049 6.7749 13.1286 6.36554 12.545C5.95618 11.9614 5.69364 11.2876 5.60021 10.5809C5.50677 9.87417 5.58519 9.15533 5.82882 8.48537C6.07244 7.81542 6.47408 7.21412 6.99965 6.73249C7.52522 6.25086 8.15922 5.90311 8.84785 5.71876C9.53648 5.53441 10.2594 5.51889 10.9553 5.67352C11.6512 5.82815 12.2996 6.14837 12.8453 6.607L15.0748 4.4835C14.177 3.65654 13.0909 3.06121 11.9109 2.74919C10.7308 2.43716 9.49241 2.41787 8.3032 2.69299C7.11399 2.96811 6.0099 3.52933 5.08677 4.32792C4.16365 5.12651 3.44938 6.13834 3.00598 7.27558C2.56259 8.41282 2.40346 9.64109 2.54241 10.8538C2.68136 12.0665 3.11419 13.2269 3.80334 14.2344C4.49248 15.2418 5.4171 16.0659 6.49694 16.635C7.57678 17.2041 8.7792 17.501 9.99982 17.5C14.1353 17.5 17.8733 14.7725 17.1913 8.6365Z" fill="#EA4336"/>
</svg>
