<svg width="241" height="240" viewBox="0 0 241 240" fill="none" xmlns="http://www.w3.org/2000/svg">
<path d="M211.862 145.898H114.803L88.4788 114.579H185.537L211.862 145.898ZM7.49993 145.898H62.1545L88.4788 114.579H33.8245L7.49993 145.898Z" fill="#DDEBFD"/>
<path d="M114.736 145.791L88.412 114.472V221.411H185.47V145.791H114.736Z" fill="#B9D7FF"/>
<path d="M62.0895 145.811H33.7595V221.43H88.4137V114.491L62.0895 145.811ZM187.003 108.402L179.748 101.146C178.508 102.714 177.195 104.246 175.737 105.704C174.278 107.162 172.747 108.475 171.179 109.715L178.435 116.97C177.597 120.616 178.618 124.627 181.461 127.471L214.13 160.14C218.542 164.551 225.725 164.551 230.136 160.14C234.548 155.728 234.548 148.545 230.136 144.134L197.468 111.465C194.66 108.548 190.686 107.563 187.003 108.402Z" fill="#0B257E"/>
<path d="M139.549 120.904C167.8 120.904 190.703 98.0016 190.703 69.7499C190.703 41.4982 167.8 18.5957 139.549 18.5957C111.297 18.5957 88.3947 41.4982 88.3947 69.7499C88.3947 98.0016 111.297 120.904 139.549 120.904Z" fill="#B9D7FF"/>
<path d="M139.55 106.319C134.745 106.337 129.985 105.398 125.546 103.558C121.109 101.717 117.081 99.012 113.699 95.5998C99.4425 81.3433 99.4425 58.1182 113.699 43.862C120.626 36.9345 129.778 33.1426 139.55 33.1426C149.321 33.1426 158.509 36.9345 165.4 43.862C179.656 58.1182 179.656 81.3433 165.4 95.5998C162.018 99.012 157.99 101.717 153.552 103.558C149.114 105.398 144.354 106.337 139.55 106.319Z" fill="white"/>
<path d="M167.369 41.9295C159.931 34.4916 150.087 30.408 139.55 30.408C129.012 30.408 119.168 34.4916 111.767 41.9295C96.4531 57.2793 96.4531 82.2185 111.767 97.532C119.204 104.97 129.049 109.054 139.55 109.054C150.051 109.054 159.931 104.97 167.369 97.532C182.683 82.2185 182.683 57.2793 167.369 41.9295ZM163.504 93.6672C157.124 100.048 148.628 103.584 139.586 103.584C130.544 103.584 122.048 100.048 115.668 93.6672C102.469 80.4682 102.469 58.9929 115.668 45.7943C122.048 39.4137 130.544 35.8771 139.586 35.8771C148.628 35.8771 157.124 39.4137 163.504 45.7943C176.703 58.9929 176.703 80.4682 163.504 93.6672Z" fill="#0B257E"/>
<path d="M232.032 142.313L199.364 109.645C197.873 108.157 196.067 107.023 194.079 106.329C192.09 105.635 189.971 105.397 187.879 105.634L183.285 101.04C198.38 80.0022 196.52 50.4688 177.633 31.5459C156.632 10.5446 122.432 10.5446 101.394 31.5459C80.3926 52.5471 80.3926 86.7472 101.394 107.785C111.895 118.286 125.713 123.536 139.496 123.536C150.507 123.536 161.517 120.109 170.852 113.437L175.445 118.03C174.972 122.26 176.393 126.489 179.456 129.516L212.125 162.184C214.86 164.919 218.469 166.305 222.079 166.305C225.688 166.305 229.298 164.919 232.032 162.184C237.501 156.715 237.501 147.819 232.032 142.313ZM105.259 103.92C96.1076 94.7686 91.0757 82.6271 91.0757 69.6838C91.0757 56.74 96.1076 44.5988 105.259 35.4472C114.411 26.2956 126.552 21.264 139.496 21.264C152.439 21.264 164.58 26.2956 173.732 35.4472C182.884 44.5988 187.915 56.74 187.915 69.6838C187.915 82.6271 182.884 94.7686 173.732 103.92C164.58 113.072 152.439 118.103 139.496 118.103C126.552 118.103 114.411 113.072 105.259 103.92ZM228.168 158.356C224.813 161.71 219.381 161.71 216.026 158.356L183.357 125.687C181.28 123.609 180.441 120.619 181.061 117.739C181.164 117.292 181.152 116.826 181.024 116.386C180.897 115.945 180.658 115.545 180.332 115.223L175.154 110.046C175.993 109.317 176.831 108.624 177.597 107.821C178.399 107.019 179.092 106.181 179.821 105.378L184.998 110.556C185.655 111.213 186.603 111.504 187.514 111.285C190.431 110.629 193.384 111.468 195.499 113.582L228.168 146.251C229.808 147.892 230.684 150.043 230.684 152.34C230.684 154.637 229.808 156.715 228.168 158.356Z" fill="#0B257E"/>
<path d="M64.2683 147.673L88.5147 118.833L112.761 147.673C113.271 148.293 114.037 148.657 114.839 148.657H184.515C186.01 148.657 187.25 147.418 187.25 145.923C187.25 144.428 186.01 143.188 184.515 143.188H116.115L94.3845 117.338H96.9733C98.4684 117.338 99.7078 116.098 99.7078 114.603C99.7078 113.108 98.4684 111.869 96.9733 111.869H33.8601C33.0579 111.869 32.2923 112.233 31.7818 112.853L5.45729 144.173C4.76452 144.975 4.61868 146.141 5.05619 147.089C5.49371 148.037 6.47817 148.657 7.53553 148.657H62.19C62.9923 148.621 63.7579 148.256 64.2683 147.673ZM13.4057 143.152L35.1362 117.301H82.6444L60.914 143.152H13.4057ZM129.97 195.29H101.385C99.8901 195.29 98.6507 196.53 98.6507 198.025C98.6507 199.52 99.8901 200.759 101.385 200.759H129.97C131.465 200.759 132.705 199.52 132.705 198.025C132.705 196.53 131.465 195.29 129.97 195.29ZM129.97 205.901H101.385C99.8901 205.901 98.6507 207.14 98.6507 208.635C98.6507 210.13 99.8901 211.369 101.385 211.369H129.97C130.695 211.369 131.391 211.081 131.904 210.569C132.416 210.056 132.705 209.36 132.705 208.635C132.705 207.91 132.416 207.214 131.904 206.701C131.391 206.189 130.695 205.901 129.97 205.901ZM152.54 56.7037C152.025 56.1952 151.331 55.9099 150.607 55.9099C149.884 55.9099 149.189 56.1952 148.675 56.7037L139.669 65.7094L130.663 56.7037C129.606 55.6462 127.856 55.6462 126.798 56.7037C125.741 57.7608 125.741 59.511 126.798 60.5686L135.804 69.5742L126.798 78.5799C125.741 79.6374 125.741 81.3872 126.798 82.4447C127.345 82.9918 128.038 83.247 128.731 83.247C129.423 83.247 130.116 82.9918 130.663 82.4447L139.669 73.439L148.675 82.4447C149.221 82.9918 149.914 83.247 150.607 83.247C151.3 83.247 151.992 82.9918 152.54 82.4447C153.597 81.3872 153.597 79.6374 152.54 78.5799L143.533 69.5742L152.54 60.5686C153.633 59.511 153.633 57.7608 152.54 56.7037Z" fill="#0B257E"/>
<path d="M185.537 153.977C184.042 153.977 182.803 155.217 182.803 156.712V218.658H91.2132V131.445C91.2132 129.95 89.9738 128.71 88.4788 128.71C86.9842 128.71 85.7443 129.95 85.7443 131.445V218.658H36.559V156.712C36.559 155.217 35.3193 153.977 33.8244 153.977C32.3296 153.977 31.0899 155.217 31.0899 156.712V221.393C31.0899 222.888 32.3296 224.127 33.8244 224.127H185.537C187.032 224.127 188.272 222.888 188.272 221.393V156.712C188.272 155.217 187.032 153.977 185.537 153.977Z" fill="#0B257E"/>
</svg>
