<svg width="36" height="25" viewBox="0 0 36 25" fill="none" xmlns="http://www.w3.org/2000/svg">
<g clip-path="url(#clip0_1_2211)">
<path d="M22.507 4.02209L13.2109 4.05387L13.4926 20.9782L22.7887 20.9464L22.507 4.02209Z" fill="#FF5F00"/>
<path d="M13.8288 12.5565C13.7713 9.11418 15.3219 6.05559 17.7507 4.07164C15.9174 2.64104 13.6191 1.78076 11.1276 1.78925C5.22521 1.80935 0.530432 6.64478 0.629972 12.6014C0.729512 18.558 5.58535 23.3609 11.4878 23.3409C13.9792 23.3323 16.2486 22.4564 18.0338 21.0135C15.5395 19.0764 13.8863 15.9987 13.8288 12.5565Z" fill="#EB001B"/>
<path d="M35.3697 12.3988C35.4693 18.3555 30.7745 23.1908 24.8721 23.211C22.3806 23.2194 20.0823 22.3592 18.249 20.9286C20.7075 18.9446 22.2285 15.886 22.1709 12.4437C22.1133 9.00147 20.4607 5.95379 17.9658 3.98662C19.7511 2.54368 22.0204 1.66785 24.5119 1.65936C30.4143 1.63926 35.2707 6.47211 35.3697 12.3988Z" fill="#F79E1B"/>
</g>
<defs>
<clipPath id="clip0_1_2211">
<rect width="36" height="25" fill="white"/>
</clipPath>
</defs>
</svg>
