<svg width="44" height="13" viewBox="0 0 44 13" fill="none" xmlns="http://www.w3.org/2000/svg">
<g clip-path="url(#clip0_1_2237)">
<path d="M7.45181 1.64416C6.90031 1.2702 6.18065 1.08276 5.29282 1.08276H1.85564C1.58347 1.08276 1.4331 1.21702 1.40454 1.48529L0.00828905 10.1304C-0.00622239 10.2153 0.0153149 10.293 0.072704 10.3636C0.129765 10.4343 0.201534 10.4694 0.287486 10.4694H1.92012C2.20648 10.4694 2.36387 10.3355 2.39275 10.0669L2.77938 7.73623C2.79351 7.62328 2.84386 7.53142 2.92982 7.4607C3.01571 7.39011 3.12313 7.34393 3.25203 7.32282C3.38093 7.30184 3.50246 7.2912 3.61723 7.2912C3.7317 7.2912 3.86768 7.29839 4.02546 7.31245C4.18285 7.32651 4.28319 7.33343 4.3262 7.33343C5.55776 7.33343 6.52446 6.99113 7.22633 6.30578C7.92787 5.6208 8.27903 4.67093 8.27903 3.45577C8.27903 2.62234 8.00304 2.01871 7.45181 1.64416ZM5.67964 4.24003C5.60781 4.73453 5.42185 5.05927 5.12111 5.21471C4.82032 5.37034 4.39068 5.44781 3.83221 5.44781L3.12326 5.46892L3.48855 3.20162C3.51704 3.04638 3.61008 2.96865 3.76773 2.96865H4.17603C4.7486 2.96865 5.16418 3.05007 5.42198 3.21223C5.67964 3.37481 5.7656 3.71749 5.67964 4.24003Z" fill="#003087"/>
<path d="M43.7221 1.08276H42.1326C41.9747 1.08276 41.8818 1.16048 41.8534 1.31599L40.4571 10.1308L40.4355 10.1732C40.4355 10.2441 40.4641 10.3109 40.5216 10.3745C40.5785 10.438 40.6505 10.4698 40.7363 10.4698H42.1544C42.4259 10.4698 42.5764 10.3358 42.6054 10.0673L44.0017 1.40077V1.37972C44.0017 1.18186 43.9082 1.08276 43.7221 1.08276Z" fill="#009CDE"/>
<path d="M24.5054 4.48719C24.5054 4.41671 24.4768 4.34948 24.4198 4.28608C24.3624 4.22254 24.2979 4.19055 24.2264 4.19055H22.5723C22.4145 4.19055 22.2856 4.26153 22.1855 4.40241L19.9084 7.70806L18.9632 4.52968C18.8912 4.30383 18.7339 4.19055 18.4906 4.19055H16.8792C16.8074 4.19055 16.743 4.22241 16.6861 4.28608C16.6286 4.34948 16.6001 4.41684 16.6001 4.48719C16.6001 4.51562 16.7398 4.93219 17.019 5.73739C17.2982 6.54283 17.5989 7.41161 17.9212 8.344C18.2435 9.27619 18.4116 9.77088 18.426 9.82691C17.2515 11.4093 16.6646 12.2568 16.6646 12.3697C16.6646 12.5535 16.7575 12.6452 16.9438 12.6452H18.598C18.7554 12.6452 18.8842 12.5747 18.9847 12.4334L24.4627 4.63545C24.4913 4.60745 24.5054 4.5583 24.5054 4.48719Z" fill="#003087"/>
<path d="M39.9083 4.19554H38.2757C38.0748 4.19554 37.9536 4.42871 37.9105 4.89497C37.5378 4.33008 36.858 4.04724 35.8696 4.04724C34.8384 4.04724 33.9611 4.42871 33.2381 5.19155C32.5148 5.95437 32.1533 6.85166 32.1533 7.88276C32.1533 8.71639 32.4004 9.38025 32.8943 9.87449C33.3884 10.3692 34.0506 10.6161 34.8815 10.6161C35.2969 10.6161 35.7193 10.5312 36.149 10.3619C36.5786 10.1924 36.9148 9.96646 37.1588 9.68382C37.1588 9.69799 37.144 9.76133 37.1159 9.8743C37.0868 9.98751 37.0727 10.0725 37.0727 10.1286C37.0727 10.3549 37.1656 10.4676 37.3521 10.4676H38.8345C39.1062 10.4676 39.2639 10.3336 39.3068 10.065L40.1877 4.53454C40.2018 4.44969 40.1805 4.37218 40.1233 4.30144C40.0656 4.23098 39.9941 4.19554 39.9083 4.19554ZM37.1049 8.37008C36.7397 8.72324 36.2992 8.89973 35.7838 8.89973C35.3682 8.89973 35.032 8.78691 34.774 8.56073C34.5161 8.33523 34.3872 8.0244 34.3872 7.62841C34.3872 7.10614 34.5663 6.66428 34.9244 6.30411C35.2819 5.94389 35.7263 5.76382 36.2563 5.76382C36.6569 5.76382 36.99 5.88035 37.2551 6.11332C37.52 6.34646 37.6529 6.66784 37.6529 7.07762C37.6527 7.58612 37.4701 8.01708 37.1049 8.37008Z" fill="#009CDE"/>
<path d="M15.5243 4.19554H13.8916C13.6908 4.19554 13.5693 4.42871 13.5263 4.89497C13.1396 4.33008 12.4593 4.04724 11.4855 4.04724C10.4543 4.04724 9.57698 4.42871 8.85384 5.19155C8.1305 5.95437 7.76904 6.85166 7.76904 7.88276C7.76904 8.71639 8.01612 9.38025 8.51022 9.87449C9.00434 10.3692 9.66654 10.6161 10.4973 10.6161C10.8981 10.6161 11.3137 10.5312 11.7432 10.3619C12.1729 10.1924 12.5166 9.96646 12.7744 9.68382C12.717 9.85318 12.6884 10.0016 12.6884 10.1286C12.6884 10.3549 12.7815 10.4676 12.9677 10.4676H14.45C14.7219 10.4676 14.8796 10.3336 14.9226 10.065L15.8033 4.53454C15.8175 4.44969 15.7961 4.37218 15.7389 4.30144C15.6816 4.23098 15.6101 4.19554 15.5243 4.19554ZM12.7208 8.38056C12.3555 8.72706 11.9078 8.89973 11.3782 8.89973C10.9627 8.89973 10.6297 8.78691 10.3792 8.56073C10.1285 8.33523 10.0033 8.0244 10.0033 7.62841C10.0033 7.10614 10.1822 6.66428 10.5404 6.30411C10.8982 5.94389 11.3422 5.76375 11.8723 5.76375C12.2731 5.76375 12.6061 5.88035 12.8713 6.11332C13.136 6.34646 13.2686 6.66784 13.2686 7.07762C13.2686 7.60031 13.086 8.03483 12.7208 8.38056Z" fill="#003087"/>
<path d="M31.8578 1.64416C31.3062 1.2702 30.5868 1.08276 29.6987 1.08276H26.283C25.9965 1.08276 25.8388 1.21703 25.8104 1.48529L24.4141 10.1304C24.3995 10.2153 24.4211 10.293 24.4785 10.3636C24.5353 10.4343 24.6072 10.4695 24.6932 10.4695H26.4548C26.6266 10.4695 26.741 10.3777 26.7986 10.1941L27.1852 7.73622C27.1995 7.62327 27.2496 7.53144 27.3357 7.4607C27.4217 7.39011 27.5288 7.34393 27.658 7.32282C27.7867 7.30183 27.9083 7.2912 28.0232 7.2912C28.1376 7.2912 28.2735 7.2984 28.4313 7.31244C28.5886 7.32651 28.6893 7.33343 28.732 7.33343C29.9638 7.33343 30.9302 6.99113 31.632 6.30578C32.3338 5.6208 32.6847 4.67092 32.6847 3.45577C32.6847 2.62234 32.4089 2.01865 31.8578 1.64416ZM29.6558 5.12986C29.3407 5.34171 28.868 5.44761 28.2381 5.44761L27.5506 5.46885L27.9158 3.20149C27.9442 3.04631 28.0372 2.96845 28.195 2.96845H28.5815C28.8966 2.96845 29.1471 2.98264 29.3337 3.01081C29.5194 3.03919 29.6987 3.12734 29.8707 3.27559C30.0425 3.42395 30.1283 3.6395 30.1283 3.92188C30.1283 4.51542 29.9706 4.91783 29.6558 5.12986Z" fill="#009CDE"/>
</g>
<defs>
<clipPath id="clip0_1_2237">
<rect width="44" height="13" fill="white"/>
</clipPath>
</defs>
</svg>
