<svg width="43" height="17" viewBox="0 0 43 17" fill="none" xmlns="http://www.w3.org/2000/svg">
<g clip-path="url(#clip0_1_2191)">
<path d="M40.096 2.14722H37.3928C36.5754 2.14722 35.9467 2.39634 35.5696 3.206L30.4146 14.8525H34.0609C34.0609 14.8525 34.6896 13.2955 34.8152 12.9218C35.1925 12.9218 38.7757 12.9218 39.2788 12.9218C39.4043 13.3577 39.7187 14.7902 39.7187 14.7902H42.9878L40.096 2.14722ZM35.8212 10.306C36.1355 9.55862 37.204 6.75598 37.204 6.75598C37.204 6.81826 37.5184 6.00863 37.6441 5.57266L37.8957 6.6937C37.8957 6.6937 38.5871 9.74546 38.7129 10.3683H35.8212V10.306Z" fill="#3362AB"/>
<path d="M30.6709 10.6798C30.6709 13.2955 28.282 15.0394 24.5729 15.0394C23.0014 15.0394 21.4926 14.728 20.6753 14.3543L21.1782 11.4894L21.6183 11.6762C22.7499 12.1745 23.5043 12.3613 24.8872 12.3613C25.8932 12.3613 26.9619 11.9876 26.9619 11.1157C26.9619 10.5552 26.5218 10.1815 25.1387 9.55869C23.8186 8.93588 22.0584 7.9394 22.0584 6.13325C22.0584 3.64202 24.5101 1.96045 27.9677 1.96045C29.2878 1.96045 30.4194 2.20957 31.111 2.52098L30.6081 5.26133L30.3566 5.01221C29.7279 4.76308 28.9107 4.51396 27.7162 4.51396C26.3961 4.57624 25.7674 5.13677 25.7674 5.63502C25.7674 6.19553 26.5218 6.6315 27.7162 7.19203C29.7279 8.12625 30.6709 9.185 30.6709 10.6798Z" fill="#3362AB"/>
<path d="M0.00488281 2.28429L0.0677484 2.03516H5.47418C6.22857 2.03516 6.79435 2.28429 6.98294 3.09392L8.1774 8.69918C6.98294 5.70971 4.21686 3.28076 0.00488281 2.28429Z" fill="#F9B50B"/>
<path d="M15.7884 2.15115L10.3191 14.7941H6.61005L3.4668 4.20641C5.72995 5.63888 7.61591 7.88098 8.30744 9.43799L8.68463 10.7459L12.0794 2.08887H15.7884V2.15115Z" fill="#3362AB"/>
<path d="M17.2301 2.08887H20.6877L18.4874 14.7941H15.0298L17.2301 2.08887Z" fill="#3362AB"/>
</g>
<defs>
<clipPath id="clip0_1_2191">
<rect width="43" height="17" fill="white"/>
</clipPath>
</defs>
</svg>
