<svg width="25" height="24" viewBox="0 0 25 24" fill="none" xmlns="http://www.w3.org/2000/svg">
<path d="M21.5 11.25L21.5 12.75C21.5 12.9489 21.421 13.1397 21.2803 13.2803C21.1397 13.421 20.9489 13.5 20.75 13.5L4.25 13.5C4.05109 13.5 3.86032 13.421 3.71967 13.2803C3.57902 13.1397 3.5 12.9489 3.5 12.75L3.5 11.25C3.5 11.0511 3.57902 10.8603 3.71967 10.7197C3.86032 10.579 4.05109 10.5 4.25 10.5L20.75 10.5C20.9489 10.5 21.1397 10.579 21.2803 10.7197C21.421 10.8603 21.5 11.0511 21.5 11.25ZM20.75 16.5L4.25 16.5C4.05109 16.5 3.86032 16.579 3.71967 16.7197C3.57902 16.8603 3.5 17.0511 3.5 17.25L3.5 18.75C3.5 18.9489 3.57902 19.1397 3.71967 19.2803C3.86032 19.421 4.05109 19.5 4.25 19.5L20.75 19.5C20.9489 19.5 21.1397 19.421 21.2803 19.2803C21.421 19.1397 21.5 18.9489 21.5 18.75V17.25C21.5 17.0511 21.421 16.8603 21.2803 16.7197C21.1397 16.579 20.9489 16.5 20.75 16.5ZM20.75 4.5L4.25 4.5C4.05109 4.5 3.86032 4.57902 3.71967 4.71967C3.57902 4.86032 3.5 5.05109 3.5 5.25L3.5 6.75C3.5 6.94891 3.57902 7.13968 3.71967 7.28033C3.86032 7.42098 4.05109 7.5 4.25 7.5L20.75 7.5C20.9489 7.5 21.1397 7.42098 21.2803 7.28033C21.421 7.13968 21.5 6.94891 21.5 6.75V5.25C21.5 5.05109 21.421 4.86032 21.2803 4.71967C21.1397 4.57902 20.9489 4.5 20.75 4.5Z" fill="#171A1F"/>
</svg>
