<svg width="24" height="24" viewBox="0 0 24 24" fill="none" xmlns="http://www.w3.org/2000/svg">
<path d="M11.9999 21.4286C17.2071 21.4286 21.4284 17.2072 21.4284 12C21.4284 6.79273 17.2071 2.57141 11.9999 2.57141C6.7926 2.57141 2.57129 6.79273 2.57129 12C2.57129 17.2072 6.7926 21.4286 11.9999 21.4286Z" stroke="#0B257E" stroke-width="2.05714" stroke-miterlimit="10" stroke-linecap="square"/>
<path d="M11.9999 15.4286C13.8934 15.4286 15.4284 13.8935 15.4284 12C15.4284 10.1064 13.8934 8.57141 11.9999 8.57141C10.1063 8.57141 8.57129 10.1064 8.57129 12C8.57129 13.8935 10.1063 15.4286 11.9999 15.4286Z" fill="#0B257E"/>
<path d="M11.9999 15.4286C13.8934 15.4286 15.4284 13.8935 15.4284 12C15.4284 10.1064 13.8934 8.57141 11.9999 8.57141C10.1063 8.57141 8.57129 10.1064 8.57129 12C8.57129 13.8935 10.1063 15.4286 11.9999 15.4286Z" stroke="#0B257E" stroke-width="2.05714" stroke-miterlimit="10" stroke-linecap="square"/>
</svg>
