<svg width="12" height="12" viewBox="0 0 12 12" fill="none" xmlns="http://www.w3.org/2000/svg">
<g clip-path="url(#clip0_1_1610)">
<path d="M9.99997 0.666719L0.666667 10C0.298477 10.3682 0.298477 10.9652 0.666667 11.3334L0.666668 11.3334C1.03486 11.7015 1.63181 11.7015 2 11.3334L11.3333 2.00005C11.7015 1.63186 11.7015 1.03491 11.3333 0.666719C10.9651 0.298529 10.3682 0.298529 9.99997 0.666719Z" fill="#9095A0"/>
<path d="M9.99967 6.00002L5.99967 10C5.63148 10.3682 5.63148 10.9652 5.99967 11.3334L5.99968 11.3334C6.36787 11.7015 6.96482 11.7015 7.33301 11.3334L11.333 7.33336C11.7012 6.96517 11.7012 6.36821 11.333 6.00002C10.9648 5.63183 10.3679 5.63183 9.99967 6.00002Z" fill="#9095A0"/>
</g>
<defs>
<clipPath id="clip0_1_1610">
<rect width="12" height="12" fill="white"/>
</clipPath>
</defs>
</svg>
